<svg width="369" height="473" viewBox="0 0 369 473" fill="none" xmlns="http://www.w3.org/2000/svg">
<path d="M65.1969 465.421L59.1769 461.551C57.9299 463.873 56.0809 465.593 52.2969 465.593C47.8249 465.593 45.1159 461.981 45.1159 457.38C45.1159 452.779 47.7389 449.21 52.0389 449.21C55.7369 449.21 57.5429 450.973 58.6609 452.693L64.5519 448.694C62.1009 445.082 58.2309 442.416 51.9099 442.416C44.0839 442.416 37.1179 448.565 37.1179 457.38C37.1179 466.195 44.1269 472.387 52.3399 472.387C58.2739 472.387 62.3159 470.28 65.1969 465.421Z" fill="#A91E22"/>
<path d="M86.1994 453.983H76.0514V442.76H68.2254V472H76.0514V460.562H86.1994V472H94.0254V442.76H86.1994V453.983Z" fill="#A91E22"/>
<path d="M117.58 472H125.664L111.474 442.244C111.345 441.943 111.087 441.943 110.958 442.244L96.7247 472H104.379L105.841 468.474H116.032L117.58 472ZM110.872 456.606L113.538 462.798H108.249L110.872 456.606Z" fill="#A91E22"/>
<path d="M128.358 472H148.611V465.421H136.184V442.76H128.358V472Z" fill="#A91E22"/>
<path d="M152.21 472H172.463V465.421H160.036V442.76H152.21V472Z" fill="#A91E22"/>
<path d="M176.061 472H197.174V465.421H183.887V460.39H194.465V454.155H183.887V449.339H196.572V442.76H176.061V472Z" fill="#A91E22"/>
<path d="M226.677 472.516C227.15 472.903 227.279 472.774 227.279 472.43V442.76H219.926V457.423L201.565 442.287C201.092 441.9 200.963 442.115 200.963 442.373V472H208.316V457.423L226.677 472.516Z" fill="#A91E22"/>
<path d="M252.454 464.647C251.207 465.249 249.616 465.808 246.778 465.808C241.618 465.808 238.952 461.981 238.952 457.38C238.952 452.779 241.575 449.21 246.348 449.21C249.272 449.21 251.336 450.457 252.798 452.349L258.259 447.619C255.722 444.351 251.68 442.416 246.52 442.416C238.092 442.416 230.954 448.565 230.954 457.38C230.954 466.195 238.092 472.387 246.692 472.387C253.185 472.387 256.711 470.581 259.42 468.345V455.703H246.649V461.723H252.454V464.647Z" fill="#A91E22"/>
<path d="M263.321 472H284.434V465.421H271.147V460.39H281.725V454.155H271.147V449.339H283.832V442.76H263.321V472Z" fill="#A91E22"/>
<path d="M297.863 472H305.517L306.205 459.487L313.816 468.001C313.945 468.13 314.074 468.13 314.203 468.001L321.513 459.53L322.201 472H329.898L328.178 442.459C328.135 442.158 327.963 442.201 327.791 442.416L313.988 458.154L299.97 442.416C299.798 442.201 299.626 442.158 299.583 442.459L297.863 472Z" fill="#A91E22"/>
<path d="M334.204 472H355.317V465.421H342.03V460.39H352.608V454.155H342.03V449.339H354.715V442.76H334.204V472Z" fill="#A91E22"/>
<path d="M363.046 472.43C365.282 472.43 367.346 470.71 367.346 468.216C367.346 465.722 365.282 464.002 363.046 464.002C360.767 464.002 358.746 465.722 358.746 468.216C358.746 470.71 360.767 472.43 363.046 472.43Z" fill="#A91E22"/>
<path d="M100.777 9.46011L99.2188 14.9814L100.679 15.1654L102.237 9.64415L105.84 10.1963L104.282 15.7176L105.742 15.9016L107.3 10.3803L111 10.9325C111 10.9325 104.379 24.0915 104.379 23.9995L101.653 23.6314L102.042 22.3431C102.432 21.0548 102.042 19.9506 101.263 19.7665C100.485 19.5825 99.5109 20.5947 99.1215 21.883L98.732 23.1713L96.0058 22.8032C95.9084 22.9873 97.0768 9 97.0768 9L100.777 9.46011Z" fill="#A91E22"/>
<path d="M324.433 70.9209C317.13 71.3151 309.828 71.7093 302.525 72.202C300.286 72.3991 298.046 73.089 295.807 72.9904C294.541 72.8919 292.983 72.1035 292.204 71.0195C291.133 69.5413 293.081 69.1471 293.86 68.3587C294.541 67.6689 295.612 67.2747 296.489 66.6834C298.728 65.2052 300.967 63.6285 303.791 61.6575C302.525 61.2634 301.941 60.8692 301.357 60.8692C295.028 61.559 288.602 62.2488 282.273 63.1357C277.989 63.727 273.802 64.5154 269.615 65.3038C265.72 66.0921 261.826 66.9791 257.931 67.6689C256.957 67.866 255.302 67.7674 255.01 67.1762C254.523 66.3878 254.718 64.9096 255.205 63.9241C256.081 62.2488 257.444 60.7706 258.515 59.2924C258.418 59.0953 258.223 58.8982 258.126 58.6026C257.347 58.7011 256.568 58.7011 255.789 58.8982C252.771 59.5881 249.85 60.475 246.831 61.1648C241.671 62.2488 236.413 63.2343 231.155 64.3183C228.916 64.811 226.676 65.4023 224.339 65.895C220.737 66.6834 217.232 67.5703 213.532 68.1616C212.753 68.2602 211.876 67.3733 211 66.9791C211.584 66.2892 212.071 65.3038 212.85 65.1067C217.816 63.727 222.879 62.4459 227.845 61.1648C230.181 60.5735 232.518 60.0808 234.855 59.391C238.944 58.2084 243.034 56.9273 247.123 55.6462C250.629 54.5622 254.231 53.6752 257.639 52.4927C262.799 50.7188 267.863 48.7479 273.12 47.0726C273.899 46.777 274.97 47.4668 275.847 47.6639C275.555 48.4523 275.457 49.6348 274.873 50.1276C271.757 52.9854 268.447 55.5476 265.331 58.4055C264.649 58.9968 264.163 59.7851 263.676 60.5735C263.773 60.7706 263.87 60.9677 264.065 61.0663C264.844 60.9677 265.623 60.9677 266.402 60.8692C268.252 60.475 270.005 59.9822 271.855 59.6866C275.36 59.0953 278.865 58.6026 282.37 58.0113C287.239 57.2229 292.204 56.5331 297.073 55.6462C303.207 54.4636 309.244 53.1825 315.28 51.8029C317.13 51.4087 318.201 51.9999 318.299 53.9709C318.396 56.2375 316.936 57.6171 315.28 58.1099C312.067 59.1939 310.023 61.7561 307.588 63.8256C307.102 64.2198 306.907 65.1067 306.615 65.698C307.296 65.895 308.075 66.4863 308.757 66.3878C314.015 65.9936 319.273 65.4023 324.53 64.9096C327.549 64.6139 328.522 65.698 327.743 68.5558C327.354 70.5268 325.991 70.8224 324.433 70.9209Z" fill="#A91E22"/>
<path d="M75.9225 123.911C76.398 124.107 76.8735 124.889 76.9686 125.477C76.9686 125.868 76.3029 126.455 75.8274 126.651C72.0236 128.02 68.3148 129.39 64.511 130.76C63.9404 130.955 63.4649 131.444 62.9895 131.738C63.4649 132.227 63.8453 133.01 64.511 133.205C68.6952 134.673 72.9745 135.945 77.1588 137.412C83.1498 139.565 89.1409 141.913 95.1319 144.358C95.6074 144.554 96.0829 145.337 95.9878 145.826C95.8927 146.315 95.227 147 94.7515 147C93.8005 147 92.8496 146.804 91.9937 146.511C90.0918 145.924 88.285 145.043 86.4782 144.456C81.7234 142.891 76.9686 141.521 72.3089 139.858C66.1276 137.804 60.0415 135.651 53.8603 133.401C53.2897 133.205 52.9093 132.521 52.4338 132.129C52.9093 131.64 53.2897 130.955 53.9554 130.76C55.572 130.075 57.3788 129.781 58.9955 129.096C60.8974 128.314 62.6091 127.238 64.4159 126.357C64.3208 126.064 64.3208 125.868 64.2257 125.574C59.8513 124.107 55.4769 122.639 51.0074 121.074C47.5839 119.9 44.2556 118.726 40.8321 117.65C37.5038 116.476 34.1754 115.4 30.8471 114.226C26.9481 112.856 23.0492 111.584 19.2453 110.019C18.5797 109.725 17.914 108.258 18.0091 107.279C18.0091 106.79 19.5306 105.91 20.2914 106.008C21.8129 106.203 23.3345 106.888 24.856 107.377C28.0893 108.453 31.2274 109.53 34.3656 110.606C37.789 111.78 41.2125 113.052 44.7311 114.128C48.3447 115.302 52.0535 116.182 55.6671 117.258C60.0415 118.53 64.3208 119.802 68.6952 121.172C71.1677 122.052 73.5451 122.933 75.9225 123.911Z" fill="#A91E22"/>
<path d="M49.2016 175.853C54.1883 173.185 59.0773 170.326 64.0641 167.658C66.1174 166.515 67.193 167.277 67.0952 169.564C66.9974 170.612 66.7041 171.756 66.4108 172.804C66.0196 174.519 65.7263 176.139 65.2374 178.521C66.8997 177.949 67.8775 177.663 68.7575 177.282C71.1042 176.234 73.4509 175.091 75.7976 173.947C81.2732 171.375 86.6511 168.802 92.1268 166.229C93.9846 165.372 95.9402 164.609 97.9935 164.038C98.5802 163.847 99.7536 164.419 99.9491 164.895C100.145 165.467 99.7536 166.61 99.1669 166.896C93.3001 170.136 87.4334 173.28 81.4688 176.234C75.602 179.093 69.6375 181.761 63.5752 184.333C62.2062 184.905 60.6418 185 59.1751 185.382C59.2729 183.762 59.2729 182.142 59.4684 180.522C59.7618 178.807 60.1529 177.187 60.544 175.377C59.664 175.377 59.2729 175.281 58.9795 175.377C55.3617 177.282 51.7438 179.188 48.126 181.094C42.6504 183.952 37.2725 186.906 31.7968 189.765C26.2234 192.623 20.65 195.387 15.0765 198.245C14.1965 198.722 13.2187 199.674 12.4365 198.245C11.752 197.006 11.752 195.863 13.3165 195.101C18.9877 192.052 24.5612 189.002 30.1346 185.953C36.588 182.523 42.9437 179.188 49.2016 175.853Z" fill="#A91E22"/>
<path d="M132.706 170.345C131.702 169.268 131.602 168.19 133.51 167.7C135.217 167.308 136.923 166.622 138.53 166.034C142.647 164.467 146.663 162.801 150.779 161.332C152.486 160.744 154.193 160.842 155.599 162.409C159.213 166.622 163.129 170.639 166.644 174.95C168.551 177.203 170.559 179.751 169.856 183.082C169.555 184.453 168.953 185.727 168.451 187.099C167.848 188.764 167.447 190.528 166.844 192.291C166.342 193.565 165.338 194.447 164.033 193.761C163.631 193.565 163.631 192.095 163.832 191.312C164.535 188.274 165.439 185.237 166.242 181.906C165.84 180.828 165.639 179.555 164.836 178.575C161.724 174.558 158.41 170.737 155.298 166.72C153.892 164.957 152.286 164.761 150.378 165.349C146.763 166.524 143.048 167.7 139.434 168.974C137.225 169.757 137.024 170.247 138.731 171.913C143.249 176.518 147.767 181.024 152.286 185.629C152.687 186.021 152.988 186.805 152.988 187.295C152.988 187.589 152.286 188.274 151.884 188.274C150.88 188.176 149.575 188.078 148.972 187.491C143.55 181.808 138.128 176.126 132.706 170.345Z" fill="black"/>
<path d="M119.69 41.155C121.79 42.0526 123.802 43.05 125.638 44.4463C128.613 46.6405 131.412 49.1339 134.298 51.5276C135.26 52.3255 135.085 53.2232 134.648 54.5197C133.249 58.4095 129.662 59.1076 127.126 61.3018C126.601 61.8005 125.726 61.8005 125.464 62C122.664 62 119.69 58.9082 119.253 56.2153C118.728 52.1261 119.166 47.7376 117.241 43.8479C116.367 42.2521 118.028 40.4568 119.69 41.155Z" fill="black"/>
<path d="M156.55 240.169C158.648 238.812 160.841 237.745 163.033 236.485C164.94 235.418 164.559 234.06 163.701 232.315C161.985 229.115 160.459 225.818 158.934 222.521C158.648 221.842 159.124 220.873 159.22 220C159.982 220.388 161.127 220.485 161.603 221.164C164.273 224.751 166.942 228.436 169.326 232.218C170.184 233.672 170.375 235.709 168.849 237.163C166.942 239.103 166.18 244.339 167.419 247.345C168.087 247.054 168.754 246.763 169.421 246.569C170.756 246.181 172.091 245.6 173.33 245.696C174.189 245.696 175.047 246.763 176 247.248C175.333 247.927 174.761 248.993 173.998 249.284C171.519 250.254 169.04 251.03 166.466 251.612C163.51 252.29 160.65 252.29 157.504 249.866C159.696 248.315 161.699 246.957 163.605 245.503C163.319 245.018 163.033 244.63 162.747 244.145C161.985 244.048 161.222 243.951 160.459 243.854C159.315 243.854 158.171 244.145 157.122 243.854C156.264 243.66 155.311 242.884 155.025 242.109C154.834 241.721 155.787 240.654 156.55 240.169Z" fill="black"/>
<path d="M164 217.75C164.886 217.446 165.773 216.838 166.561 217.041C169.811 217.75 173.061 218.662 176.312 219.473C181.433 220.791 186.555 222.514 191.775 223.122C200.344 224.236 209.11 224.642 217.778 225.351C217.778 225.149 217.778 225.047 217.778 224.845C222.407 224.845 227.135 224.743 231.764 224.946C232.552 224.946 233.734 225.757 233.931 226.365C234.325 227.885 232.946 227.885 232.059 227.885C222.112 228.291 212.262 228.696 202.314 229C201.526 229 200.837 228.797 200.049 228.595C196.405 227.784 192.76 227.176 189.116 226.263C184.782 225.149 180.449 223.932 176.213 222.615C172.766 221.601 169.417 220.486 166.068 219.27C165.28 218.966 164.689 218.257 164 217.75Z" fill="black"/>
<path d="M187.407 258.107C188.176 257.814 189.136 258.204 190 258.302C189.52 258.984 189.136 260.057 188.464 260.447C183.855 262.787 179.246 265.03 174.541 267.175C168.684 269.807 162.827 272.44 157.066 274.975C154.473 276.145 151.881 276.633 149 274.683C149.96 274 150.728 273.415 151.496 273.025C155.625 271.172 159.754 269.222 163.979 267.467C171.852 264.152 179.63 261.13 187.407 258.107Z" fill="black"/>
<path d="M150.511 217C149.981 217 148.813 215.068 149.025 214.585C149.662 213.136 150.617 211.325 151.891 210.722C154.438 209.635 157.303 209.514 159.956 208.79C164.519 207.462 169.082 206.134 173.433 204.202C177.253 202.512 180.861 200.821 185 203.115C184.257 206.375 182.029 206.979 179.588 207.583C174.176 209.031 168.658 210.601 163.352 212.412C160.274 213.499 156.878 212.774 154.225 215.913C153.589 216.879 151.785 217 150.511 217Z" fill="black"/>
<path d="M300.757 375.349C303.003 376.808 305.054 376.078 307.3 375.87C309.742 375.662 312.183 376.183 314.624 376.808C315.308 377.017 316.089 378.788 315.992 379.727C315.699 381.603 314.82 383.375 312.769 383.479C311.011 383.583 309.253 383.479 307.593 383.479C307.593 383.687 307.496 383.896 307.496 384C304.566 383.375 301.636 382.853 298.707 382.124C296.558 381.707 295.582 379.622 296.167 377.538C296.656 375.766 299.195 374.307 300.757 375.349Z" fill="black"/>
<path d="M242.897 354.525C248.06 354.315 253.118 354 258.282 354C259.23 354 260.494 355.155 260.916 356.1C261.232 356.836 260.6 358.411 259.968 359.041C258.808 359.986 257.333 360.616 255.858 360.826C253.75 361.141 251.643 360.931 249.535 360.931C247.533 360.931 245.636 360.826 243.634 360.931C241.316 361.141 240.157 359.881 240.052 357.886C239.735 355.995 240.895 354.63 242.897 354.525Z" fill="black"/>
<path d="M161.634 373.531C165.03 373.151 168.522 372.772 171.918 372.139C174.246 371.759 176.284 372.012 177.642 374.797C178.224 375.936 178.515 377.076 179 378.215C178.03 378.848 177.06 379.861 176.09 379.987C172.597 380.494 169.104 380.747 165.612 381V380.873C164.254 380.873 162.895 380.873 161.537 380.873C159.791 380.873 158.433 379.734 158.044 377.582C157.656 375.936 159.888 373.658 161.634 373.531Z" fill="black"/>
<path d="M47.8603 53C47.5622 52.9232 47.1647 52.8464 46.7672 52.7695C43.7858 51.9245 40.7051 51.1563 37.7238 50.3113C35.4381 49.6967 33.1523 49.0053 30.966 48.2371C29.0778 47.5457 28.4816 46.2397 29.4754 44.8569C30.5685 43.3205 31.8604 44.2424 33.1524 44.6265C36.4318 45.5483 39.8107 46.3934 42.9908 47.392C45.3759 48.1603 48.2578 48.4675 49.6491 50.5417C50.5435 51.8477 49.6491 53 47.8603 53Z" fill="black"/>
<path d="M208.008 372.281C210.24 371.857 212.666 372.175 214.995 372.175V372.069C217.518 372.069 219.944 371.857 222.467 372.175C223.34 372.281 224.505 373.657 224.893 374.821C225.378 376.302 224.117 376.726 223.049 376.831C218.1 377.255 213.054 377.784 208.008 377.996C206.164 378.101 205 376.302 205 374.715C205 373.762 206.844 372.492 208.008 372.281Z" fill="black"/>
<path d="M124.849 384.222C129.093 383.911 133.429 383.911 137.672 384.326C138.502 384.43 139.794 386.298 139.978 387.44C140.163 388.79 139.148 390.036 137.488 389.932C135.458 389.828 133.521 389.932 131.491 389.932C129.37 389.932 127.156 390.14 125.126 389.828C124.296 389.725 122.912 388.271 123.004 387.648C123.097 386.298 124.111 384.326 124.849 384.222Z" fill="black"/>
<path d="M201.323 361.689C205.497 361.344 209.767 361.086 214.037 361C214.814 361 215.784 361.603 216.27 362.205C216.755 362.894 217.143 363.927 216.949 364.702C216.852 365.218 215.687 365.735 214.911 365.821C212.873 365.993 210.738 365.907 208.602 365.907C206.467 365.907 204.235 366.165 202.1 365.821C200.935 365.649 199.479 364.616 199.091 363.669C198.606 362.377 200.159 361.775 201.323 361.689Z" fill="black"/>
<path d="M94.0903 40.5336C94.5493 38.7452 95.8346 37.9036 97.3953 38.0088C100.792 38.0088 104.005 40.5336 104.832 43.9C105.383 46.1092 104.556 47.4768 102.72 46.8456C100.517 46.1092 98.4052 44.952 96.2936 43.9C95.0083 43.2688 93.6312 42.4272 94.0903 40.5336Z" fill="black"/>
<path d="M136 65.0793C137.061 65.4059 138.204 65.6509 139.184 66.2224C139.592 66.4674 139.755 67.3656 140 67.9371C139.51 67.8555 138.857 67.8555 138.449 67.6105C137.388 66.9573 136.408 66.8756 135.837 68.1821C135.51 68.9169 135.265 69.7335 135.102 70.4683C134.857 72.9995 134.286 73.4078 132 72.6729C132.327 70.9582 132.49 69.4885 132.816 68.0188C133.306 66.4674 134.531 64.5894 136 65.0793Z" fill="black"/>
<path d="M100 52.7851C100 54.6967 99.2007 56 98.1108 56C96.9483 56 95.931 54.5229 96.0037 52.7851C96.0037 51.1342 96.7303 50.1785 98.1108 50.0047C99.2007 49.9178 100 51.0473 100 52.7851Z" fill="black"/>
<path d="M96.8115 239.802C95.3537 240.3 94 239.864 94 238.433C94.7289 237.686 95.6661 236.566 96.9157 235.508C97.2281 235.196 98.2694 234.947 98.8942 235.01C99.3107 235.072 99.8314 235.632 99.9355 236.005C100.352 237.25 98.6859 239.18 96.8115 239.802Z" fill="black"/>
<path d="M30.4881 62.0007C35.5373 62.1278 40.5864 62.2548 45.6356 62.3819C46.5706 62.3819 46.9446 63.3984 46.9446 64.2879C47.1316 65.1773 46.8511 66.1938 46.0096 66.3209C41.428 67.2104 36.9398 67.8457 32.2647 67.8457C30.5816 67.8457 26.0935 68.9893 26 65.0503C26 61.8736 28.8051 62.0007 30.4881 62.0007Z" fill="black"/>
<path d="M49.7234 75.6423C47.5109 78.7464 42.4824 80.481 39.063 82.033C36.6493 83.1285 32.4253 86.689 29.8104 84.0415C27.799 82.033 29.911 80.2984 32.023 79.568C37.5544 77.8334 42.4824 75.8249 47.6115 73.1774C48.7177 72.6296 49.7234 73.4512 49.824 74.2729C50.0251 74.6381 50.1257 75.0946 49.7234 75.6423Z" fill="black"/>
<path d="M296.138 6.21201C294.316 7.12647 292.399 8.14252 290.481 8.65055C290.29 8.85376 290.194 9.05698 289.906 9.15858C289.331 9.36179 288.756 9.565 288.181 9.86982C287.701 10.1746 287.126 10.4795 286.551 10.4795C284.25 11.3939 281.853 12.1051 279.456 12.8164C279.36 12.8164 279.36 12.918 279.265 12.918C279.169 13.1212 278.977 13.2228 278.785 13.3244C278.593 13.426 278.306 13.5276 278.114 13.5276C277.06 14.1373 276.005 14.4421 274.854 14.7469C272.17 15.6613 269.486 16.6774 266.897 17.6935C262.871 19.3192 258.94 21.2497 254.913 23.0786C253.571 23.6882 253.667 24.3994 254.913 24.9075C257.118 25.8219 259.323 26.6348 261.433 27.6508C262.199 28.0572 263.062 28.7685 263.446 29.4797C263.638 29.8861 262.966 31.207 262.391 31.5118C258.365 33.544 254.242 35.4745 250.12 37.3034C246.285 39.0307 242.354 40.6564 238.519 42.3836C234.589 44.0093 230.562 45.635 226.631 47.2607C222.317 48.988 218.003 50.7153 213.689 52.4426C210.717 53.5603 207.745 54.7795 204.773 55.7956C203.814 56.1004 202.376 56.3036 202.088 54.5763C201.801 53.0522 202.184 52.0362 203.718 51.4266C206.211 50.5121 208.607 49.2928 211.004 48.1752C215.127 46.4479 219.345 44.7206 223.563 42.9933C226.919 41.6724 230.37 40.4531 233.726 39.2339C236.602 38.1162 239.382 36.9985 242.162 35.9825C245.326 34.8648 248.586 33.8488 251.845 32.6295C252.804 32.3247 253.571 31.5118 254.53 31.0038C254.53 30.699 254.53 30.4958 254.434 30.191C251.558 29.2765 248.49 28.4637 245.71 27.2444C244.559 26.7364 243.505 25.6187 242.833 24.3994C242.642 23.993 243.696 22.3673 244.463 21.9609C246.668 20.7416 249.065 19.9288 251.366 18.9127C256.831 16.5758 262.295 14.3405 267.76 12.0035C269.198 11.3939 270.636 10.8859 272.17 10.2762C274.567 8.95537 277.155 8.04092 279.936 7.32968C283.195 5.9072 286.263 4.68793 289.331 3.26545C291.536 2.24939 293.741 1.13173 296.042 0.217278C296.809 -0.0875396 298.247 -0.0875396 298.439 0.318883C298.918 1.23333 299.206 2.65581 298.822 3.57027C298.343 4.89114 297.192 5.70399 296.138 6.21201Z" fill="#A91E22"/>
<path d="M23 261.95C23 264.176 25.4855 267.222 26.9541 266.987C27.745 266.87 28.7617 265.816 28.9877 265.113C29.2136 263.707 26.2763 260.779 24.9206 261.013C24.0168 261.013 23.3389 261.716 23 261.95Z" fill="black"/>
<path d="M19.2397 264C18.6236 264.728 17.9195 265.375 18.0075 265.456C18.4476 266.022 19.0637 266.669 19.6798 266.992C19.8558 267.073 20.5599 266.507 21 266.183C20.4719 265.617 19.9438 264.97 19.2397 264Z" fill="black"/>
<path d="M2.4607 260.355C8.22774 253.43 14.0925 246.505 19.6641 239.482C22.01 236.556 23.8672 233.142 26.1154 230.02C26.7018 229.24 27.9726 228.655 28.95 228.557C36.281 227.484 43.612 226.607 50.943 225.631C53.6799 225.241 56.3191 224.753 58.9582 224.461C62.2816 224.071 62.5748 223.485 62.9658 220.266C63.2591 218.023 63.8455 215.487 65.214 213.829C69.7103 208.464 75.4774 208.854 81.4399 211.683C84.9588 213.341 88.38 214.317 91.4101 211.683C95.8087 207.879 100.11 203.685 103.628 199.1C107.832 193.638 111.253 187.591 115.163 181.738C116.531 179.592 116.433 177.447 115.553 175.301C114.381 172.57 112.621 170.034 111.644 167.302C110.177 163.011 108.711 158.621 108.125 154.135C107.441 149.648 107.636 145.063 107.832 140.577C108.027 137.358 108.418 134.041 109.689 131.213C111.644 126.726 114.576 122.727 116.922 118.435C117.704 117.07 118.681 115.216 118.29 113.948C117.508 111.217 115.944 108.681 114.674 106.048C113.696 104.194 109.493 101.853 107.636 102.243C105.192 102.731 102.749 103.121 100.403 103.902C95.8087 105.462 91.1169 105.17 86.425 104.682C75.0864 103.609 74.5977 92.1969 74.7932 91.8068C74.6954 91.2215 74.5977 91.0264 74.5977 90.7338C74.8909 83.2233 75.0864 75.8103 75.4774 68.2997C75.5751 66.3489 75.2819 64.8858 73.327 63.7153C72.4473 63.1301 71.763 61.2768 71.9585 60.1064C72.4473 56.5949 80.4625 50.645 83.8836 49.8647C84.1768 49.7672 85.0566 50.645 85.0566 50.9376C84.8611 51.718 84.3723 52.4007 83.8836 52.986C82.1242 54.7417 80.267 56.3999 78.5075 58.058C76.7481 59.7162 76.8459 60.9842 78.8008 62.1547C79.5828 62.6424 80.658 62.8375 81.5377 63.3252C82.3197 63.8129 83.3949 64.4956 83.3949 65.0809C83.3949 65.9587 82.7106 67.0317 81.9287 67.5194C79.9737 68.7874 79.2895 70.4456 79.876 72.689C80.1692 73.6644 80.4625 74.6398 80.5602 75.5176C80.658 77.6635 81.8309 77.8586 83.5904 77.761C86.816 77.566 89.7484 76.493 92.3876 74.7373C96.1019 72.2013 95.5155 71.616 93.9515 68.1046C93.5605 67.1292 93.5605 66.0563 93.365 64.9833C94.538 65.1784 96.0042 64.9833 96.7862 65.6661C98.8388 67.4218 100.598 69.5677 102.358 71.6161C103.726 73.2742 105.095 75.0299 106.072 76.8832C106.463 77.6635 106.072 78.834 106.072 79.8094C105.192 79.5168 104.215 79.5168 103.531 78.9315C102.553 78.1512 101.673 76.9807 100.892 76.0053C99.1321 73.8595 97.6659 73.7619 95.6132 75.6152C91.8011 79.0291 87.598 81.2725 82.3196 81.37C80.9512 81.37 80.5602 82.0528 80.4625 83.3208C80.3647 84.1987 80.267 85.0765 80.0715 85.8568C79.1918 99.1222 86.2295 99.9025 89.8461 99.1222C93.4628 98.2444 96.9817 97.4641 100.598 96.3911C104.801 95.2206 108.613 96.3911 111.644 98.8296C114.381 101.073 116.629 104.097 118.779 107.023C120.441 109.169 120.93 109.364 122.591 107.413C125.621 103.999 128.554 100.488 131.486 96.9764C131.975 96.3911 132.17 95.7083 132.561 95.0256C134.516 91.5141 133.441 88.1002 132.366 84.6864C131.877 83.2233 131.193 81.0774 129.336 81.37C128.358 81.5651 127.772 83.711 127.088 84.979C127.088 85.0765 127.088 85.1741 127.088 85.1741C126.599 88.3929 122.2 92.392 118.975 92.1969C117.997 92.1969 116.824 91.4166 116.335 90.6363C115.651 89.6609 116.14 88.6855 117.411 87.9052C121.418 85.3691 124.448 81.8577 126.208 77.3709C126.794 76.1029 127.87 75.6152 129.238 76.2979C130.704 76.9807 132.17 77.8586 133.734 78.2487C137.644 79.3217 142.141 79.0291 144.291 74.9324C145.659 72.2988 145.855 69.3726 145.171 66.3489C144.096 61.8621 139.892 59.7162 135.787 61.7645C134.907 62.1547 133.93 62.3498 132.952 62.6424C132.855 62.4473 132.659 62.2522 132.561 62.0572C132.855 61.5695 132.952 60.8867 133.343 60.6916C134.712 60.2039 136.08 59.7162 137.546 59.5211C139.208 59.2285 140.772 58.6433 140.577 56.8876C140.283 55.0343 139.697 52.8884 138.426 51.6204C132.073 44.7926 124.057 40.4034 115.651 36.6969C114.283 36.1116 112.523 35.6239 111.155 35.819C105.192 36.7944 99.7186 35.4288 94.3425 33.0879C93.756 32.7953 92.6808 32.9903 92.1921 33.3805C90.4326 34.7461 88.6732 36.1116 87.1093 37.6722C86.5228 38.2575 86.1318 39.428 86.3273 40.1107C87.3047 43.232 85.9363 45.4754 83.8836 47.5238C82.3197 48.9868 79.9737 48.4016 79.6805 46.2557C79.485 44.7926 79.9737 43.232 80.5602 41.8665C81.1467 40.5984 81.4399 39.7206 79.9737 38.8427C77.7256 37.6722 75.5752 36.3067 73.327 35.1362C70.6878 33.7707 67.8532 32.6002 65.4095 31.0396C63.6501 29.8691 64.1388 27.5281 66.1915 26.8453C68.1464 26.2601 70.2968 25.4798 72.2518 25.6749C77.2368 26.1626 82.2219 27.138 87.207 28.0158C89.8461 28.406 92.3876 29.1863 94.929 29.3814C103.531 29.9666 112.132 29.7715 120.441 33.3805C127.967 36.6969 134.712 40.7935 140.772 46.3533C144.193 49.5721 144.096 49.4745 147.126 45.8656C151.329 40.9886 152.893 35.4288 152.013 29.1863C151.72 27.333 150.938 25.3823 149.765 23.9192C144.78 17.6766 138.035 13.6775 130.704 10.9464C123.178 8.11774 115.26 7.23988 107.245 8.0202C104.313 8.31282 101.576 9.38575 99.914 12.2144C97.7636 16.0184 95.6132 19.92 93.2673 23.6265C92.6808 24.5044 91.5079 24.8946 90.5304 25.5773C90.0417 24.6019 89.5529 23.6265 89.1619 22.5536C88.9664 22.0659 89.2597 21.2856 89.4552 20.7979C90.6281 18.3594 91.8988 15.9209 93.2673 13.4824C97.4704 5.97186 104.215 2.55798 112.621 3.04567C120.93 3.53337 128.945 5.28909 136.471 9.09313C143.02 12.4095 148.983 16.3111 153.968 21.7733C159.051 27.333 161.299 33.6731 160.028 41.1837C159.93 41.7689 159.833 42.4517 159.539 42.9394C156.314 47.8164 153.186 52.6934 149.765 57.3753C147.81 60.1064 147.517 61.3744 148.885 64.4956C150.156 67.2268 150.938 69.9579 150.058 72.9816C148.592 77.761 145.464 80.8823 140.968 82.9306C140.381 83.2233 139.697 84.1987 139.795 84.7839C139.892 85.5642 140.479 86.5396 141.163 86.9298C141.554 87.1249 142.629 86.6372 143.216 86.1495C145.171 84.6864 146.93 82.8331 148.983 81.4676C154.261 77.8586 160.224 75.7127 166.577 74.3472C173.517 72.7865 180.457 71.5185 187.69 72.1037C190.525 72.2988 193.36 72.9816 196.194 73.0791C205.089 73.3718 213.789 74.4447 222.586 75.8103C229.624 76.9807 236.271 79.1266 242.722 81.9553C247.902 84.1987 252.887 86.9298 257.97 89.5633C265.008 93.2698 271.557 97.7567 277.617 102.829C278.595 103.609 279.475 104.584 278.595 105.56C277.911 106.243 276.347 106.535 275.369 106.243C273.805 105.755 272.241 104.78 270.873 103.902C264.91 100 259.143 95.8059 253.083 92.2945C248.489 89.5633 243.406 87.515 238.421 85.4667C234.316 83.8085 230.113 82.638 225.812 81.37C222.977 80.4922 220.045 79.7118 217.112 79.1266C214.571 78.6389 211.932 78.5414 209.292 78.2487C210.074 79.1266 210.856 79.7118 211.736 80.0045C214.375 80.9799 217.112 81.7602 219.849 82.7356C226.594 85.0765 232.947 88.1978 238.714 92.4895C241.256 94.4403 244.384 96.001 245.068 99.805C245.165 100.585 246.436 101.366 247.414 101.756C252.594 104.194 257.97 106.34 263.053 109.071C273.023 114.631 282.309 121.264 290.52 129.164C293.159 131.7 296.58 133.846 297.46 137.943C297.558 138.528 298.535 139.113 299.122 139.211C301.174 139.699 303.325 139.991 305.377 140.186C305.964 140.284 306.941 139.796 307.235 139.309C307.919 138.138 308.212 136.773 308.896 135.602C310.362 133.164 311.633 130.53 313.49 128.482C315.348 126.531 317.693 125.751 320.724 127.019C323.851 128.384 326.002 130.53 327.175 133.554C327.566 134.529 327.566 135.992 327.077 136.773C324.927 140.674 322.385 144.381 320.235 148.282C319.844 148.965 320.235 150.038 320.43 150.916C321.017 152.867 322.19 154.72 322.483 156.768C323.07 160.767 321.701 164.279 318.769 167.205C317.889 168.083 317.009 169.156 317.693 170.814C318.28 172.179 318.475 173.838 318.28 175.398C318.28 175.593 318.182 175.788 318.182 175.983C318.378 176.764 318.084 177.544 317.205 177.739C316.52 178.324 315.543 178.617 314.468 178.422C313.881 178.617 313.197 178.617 312.415 178.617C311.633 178.812 310.851 178.91 310.167 178.812C309.776 178.91 309.287 178.812 308.603 178.617C305.28 177.447 304.986 177.544 302.934 180.47C302.054 181.641 301.272 182.909 300.588 184.274C298.437 188.273 295.798 191.492 290.618 191.492C289.836 191.492 288.858 192.37 288.467 193.053C285.339 198.613 282.309 204.27 279.181 209.83C277.031 213.731 276.933 213.634 280.354 216.56C282.016 217.926 282.993 219.681 281.82 221.925C278.693 227.777 275.565 233.629 272.632 239.579C272.046 240.847 271.655 242.798 272.241 244.066C273.903 247.578 275.956 250.894 277.911 254.21C280.843 259.282 283.873 264.257 286.61 269.329C287.881 271.67 286.415 274.986 283.384 274.694C280.941 274.401 278.497 274.498 276.151 274.596C274.001 274.694 272.828 273.816 271.948 271.962C269.798 266.988 267.452 262.013 265.301 257.039C264.519 255.381 263.835 255.186 262.858 256.649C261.685 258.6 260.316 260.55 259.534 262.696C257.97 266.89 255.038 269.817 251.226 272.06C249.76 272.938 248.489 274.206 246.632 275.571C248.88 276.254 250.151 276.839 251.617 277.035C255.527 277.717 259.534 278.4 263.444 278.79C270.677 279.473 277.911 280.058 285.144 280.253C288.76 280.351 292.573 280.448 295.994 278.595C299.61 276.644 300.099 274.694 296.873 272.255C295.212 270.987 293.159 270.012 291.4 268.841C290.324 268.256 289.054 267.573 289.738 266.11C290.031 265.525 291.4 265.037 292.084 265.33C297.558 266.988 302.347 269.622 306.55 273.718C313.588 280.643 320.626 287.569 327.859 294.299C335.288 301.224 343.108 307.76 350.634 314.49C353.078 316.636 356.303 318.001 357.183 321.61C357.379 322.39 358.454 323.073 359.334 323.463C361.973 324.634 364.612 325.414 367.251 326.585C367.935 326.877 368.717 327.853 368.815 328.535C369.01 330.389 369.108 332.34 368.815 334.193C368.228 338.094 365.785 339.167 362.364 337.216C361.582 336.729 360.409 336.241 359.724 336.534C359.236 336.729 358.747 336.826 358.258 336.924C357.085 339.655 356.401 341.801 357.574 345.02C358.161 346.58 359.04 348.043 360.018 349.506C360.311 349.702 360.604 350.189 360.702 350.579C361.484 351.847 362.266 353.213 362.852 354.676C364.319 358.578 363.634 361.894 362.07 365.113C361.582 366.771 360.897 368.332 360.115 369.892C357.965 374.379 354.251 377.305 349.754 378.963C346.138 380.231 342.423 381.987 338.416 379.646C336.168 378.281 335.288 376.33 336.656 374.086C339.1 369.892 341.641 365.601 344.085 361.406C345.258 359.358 345.063 357.017 343.499 356.432C340.859 355.456 338.22 354.676 335.581 353.701C330.205 351.75 324.829 349.897 319.648 347.653C315.348 345.8 311.047 343.752 306.941 341.411C300.197 337.704 293.355 334.095 286.903 329.803C276.64 322.976 266.67 315.953 256.797 308.637C242.526 298.103 228.549 287.179 214.473 276.449C212.029 274.596 211.736 274.596 209.781 276.839C201.961 285.911 194.337 295.079 186.224 303.858C171.367 319.952 156.314 335.753 141.261 351.652C135.592 357.602 129.531 363.26 123.666 369.014C122.494 370.185 121.321 370.087 119.952 369.307C115.944 366.869 111.937 364.43 107.832 362.089C103.824 359.748 102.358 360.041 99.5231 363.942C93.1695 372.331 86.816 380.524 77.1391 385.499C73.327 387.449 73.4247 387.742 70.2968 384.913C69.2216 383.938 67.9509 382.963 66.9735 381.89C64.432 379.159 65.8982 372.526 69.4171 371.843C71.0788 371.55 71.8608 370.673 72.545 369.6C71.5675 368.917 70.7856 367.649 70.2968 366.869C69.4171 365.698 68.7329 364.528 68.0487 363.26C66.9735 361.992 66.0937 360.236 65.5073 359.26C64.823 357.992 64.2365 356.724 63.7478 355.456C63.7478 355.456 63.6501 355.456 63.6501 355.554C63.5523 355.261 63.5523 355.066 63.4546 354.774C63.0636 353.603 62.8681 352.335 62.6726 351.067C62.4771 349.897 62.1839 348.629 62.1839 347.458C61.5974 339.46 62.2816 331.657 64.7253 324.049C65.8005 320.635 68.7329 318.489 72.2518 319.172C72.936 319.367 73.9135 319.854 74.2067 320.44C74.8909 321.903 75.3796 323.366 75.5751 324.926C76.6504 331.071 77.2368 337.314 78.6053 343.361C79.2895 346.385 80.9512 349.409 82.6129 352.043C83.3949 353.213 85.5453 353.701 87.1093 354.188C87.6957 354.383 88.5754 353.603 89.2597 353.311C88.8687 352.628 88.6732 351.847 88.1844 351.36C87.1092 350.384 85.9363 349.702 84.7633 348.824C83.3949 347.848 83.3949 346.775 84.2746 345.507C85.4475 343.947 86.5228 342.386 87.6957 340.825C94.4402 331.169 100.892 321.513 107.832 312.051C113.99 303.663 120.441 295.567 126.501 287.764C128.847 284.448 131.388 281.229 134.125 278.205C134.223 277.912 134.223 277.62 134.419 277.327C139.11 270.89 143.9 264.452 148.592 258.014C150.742 255.088 152.99 252.162 152.013 247.968C151.72 246.895 152.795 245.334 153.577 244.261C154.457 243.091 155.923 243.578 155.923 245.042C156.021 247.675 156.509 250.601 155.532 252.845C153.577 257.527 151.133 262.013 148.299 266.208C143.9 272.645 138.915 278.693 134.125 284.935C126.599 294.884 118.975 304.736 111.546 314.782C105.877 322.293 100.403 329.999 94.929 337.607C93.8538 339.07 94.4402 340.63 96.1019 341.411C99.5231 342.971 102.846 344.629 106.17 346.288C109.786 348.141 113.403 350.189 117.02 352.043C118.388 352.725 119.854 353.018 121.223 351.75C129.14 344.532 137.155 337.509 144.877 330.096C159.344 316.245 173.713 302.297 187.984 288.252C191.698 284.545 195.119 280.546 198.638 276.644C198.931 276.254 198.931 275.571 199.127 275.084C198.638 274.986 198.149 274.694 197.661 274.791C196.976 274.889 196.39 275.181 195.706 275.376C194.044 276.059 192.382 276.742 190.721 277.425C186.909 278.985 183.096 280.546 179.284 282.107C175.374 283.765 171.562 285.423 167.75 286.984C163.84 288.544 159.833 289.91 156.021 291.568C153.381 292.836 150.742 293.421 148.005 292.251C146.832 291.763 145.757 290.593 145.171 289.422C144.975 289.032 146.05 287.471 146.832 287.081C149.081 286.008 151.329 285.13 153.675 284.252C157.976 282.692 162.374 281.326 166.577 279.766C171.856 277.717 177.134 275.571 182.412 273.426C187.886 271.182 193.36 268.939 198.834 266.598C200.691 265.817 200.691 265.037 199.225 263.672C196.292 260.94 193.262 258.307 190.427 255.478C185.247 250.211 179.675 245.139 175.863 238.604C175.57 238.019 175.668 237.238 175.57 236.458C176.352 236.751 177.427 236.751 177.916 237.336C180.066 239.579 182.021 242.115 184.074 244.456C191.209 252.259 199.225 259.185 207.631 265.622C218.481 274.011 229.135 282.594 240.083 290.69C253.669 300.639 267.549 310.1 281.332 319.854C295.407 329.803 310.558 337.899 326.002 345.702C328.25 346.873 329.325 346.19 330.401 344.63C333.528 339.948 336.754 335.363 339.589 330.486C341.935 326.585 341.25 323.073 338.122 319.854C334.897 316.538 331.476 313.222 328.348 309.808C319.453 300.151 310.362 290.69 303.227 279.668C302.249 278.205 301.468 278.888 300.979 279.766C298.34 284.35 293.648 285.033 289.151 285.423C282.993 286.008 276.738 285.813 270.677 284.35C264.519 282.789 258.459 281.326 252.301 279.766C250.933 279.375 249.271 278.888 248.293 277.912C246.827 276.449 245.361 276.157 243.406 276.352C240.376 276.547 239.789 275.962 239.789 272.938C239.887 268.256 239.985 263.574 240.083 258.892C240.083 257.819 240.18 256.551 240.669 255.576C243.504 250.601 246.436 245.627 249.271 240.652C252.203 235.483 255.136 230.313 258.166 225.143C260.707 220.754 263.444 216.56 266.181 212.268C267.354 210.317 269.211 210.22 270.971 211.195C272.926 212.171 273.805 211.585 274.685 209.83C277.617 204.27 280.745 198.808 283.775 193.346C284.851 191.297 285.633 189.346 284.46 186.908C284.069 186.03 284.166 184.762 284.362 183.787C284.851 181.738 285.828 179.788 286.219 177.837C286.415 176.569 286.121 175.106 285.828 173.74C284.948 169.838 283.775 166.034 282.896 162.23C282.798 161.645 283.189 160.767 283.482 160.182C284.069 159.012 284.264 158.231 282.798 157.353C278.888 155.012 274.978 152.574 271.068 150.233C269.993 149.55 269.309 149.94 268.918 151.208C267.354 156.476 264.813 161.353 261.196 165.449C256.015 171.302 249.662 175.008 242.038 176.959C235.586 178.715 229.135 179.983 222.391 180.08C221.218 180.08 219.947 180.08 218.774 180.47C218.09 180.665 217.112 181.641 217.21 182.128C217.699 184.079 218.383 185.835 220.729 186.323C222.586 186.713 224.248 187.493 226.007 188.176C229.917 189.737 233.925 191.297 237.834 193.053C240.962 194.516 244.09 195.979 246.925 197.832C250.542 200.173 252.496 203.88 254.256 207.781C256.504 212.756 259.143 217.633 256.504 223.193C255.429 225.436 254.06 227.582 252.692 229.728C251.519 231.581 249.564 231.874 248 230.313C247.023 229.338 246.143 227.972 245.654 226.607C244.481 223.193 243.504 219.584 242.429 216.072C241.256 212.268 239.985 208.367 238.519 204.563C237.639 202.222 237.444 199.491 234.316 198.223C229.428 196.272 224.736 193.638 220.142 191.102C217.601 189.737 217.112 190.029 215.841 192.468C214.18 195.491 213.007 198.71 211.247 201.636C210.172 203.392 208.511 205.148 206.751 206.123C205.578 206.806 203.232 206.708 202.157 205.928C200.886 205.05 202.059 203.49 202.841 202.222C204.014 200.466 204.992 198.418 205.969 196.564C208.12 192.273 210.172 187.883 212.42 183.494C213.398 181.543 213.202 180.47 211.052 179.983C208.022 179.202 204.796 178.812 201.766 178.032C197.661 176.959 193.653 175.788 189.645 174.52C187.886 173.935 186.127 173.252 184.367 172.667C184.172 172.862 184.074 173.155 183.878 173.35C185.149 175.008 186.322 176.569 187.593 178.227C190.818 182.421 194.044 186.615 197.172 190.907C197.563 191.395 197.367 192.37 197.367 193.15C196.585 192.955 195.51 193.053 195.021 192.468C189.157 186.128 183.292 179.69 179.773 171.594C179.284 170.424 178.209 169.156 177.134 168.668C170.194 165.547 163.84 161.45 157.976 156.768C150.058 150.428 143.802 142.625 138.915 133.651C138.133 132.188 137.058 130.823 135.983 129.36C133.734 131.408 133.734 131.408 133.539 135.602C133.441 138.431 131.975 139.894 129.14 139.894C125.817 139.894 122.493 139.991 119.17 139.894C116.726 139.894 115.945 138.918 115.945 136.577C115.945 133.944 115.945 131.31 115.945 128.677C115.945 127.994 115.651 127.214 115.456 125.946C114.869 126.726 114.478 127.019 114.381 127.311C113.794 129.75 113.305 132.188 112.719 134.627C110.862 142.625 111.546 150.623 113.501 158.426C114.772 163.596 117.313 168.57 119.757 173.447C123.178 180.275 127.772 186.42 133.05 191.98C137.937 197.15 143.02 202.222 147.908 207.391C148.69 208.269 149.374 209.342 150.058 210.22C149.863 210.512 149.667 210.708 149.569 211C148.69 210.708 147.614 210.61 146.832 210.122C145.659 209.342 144.584 208.367 143.509 207.391C141.554 205.636 140.968 205.538 139.306 207.489C131.975 215.78 123.08 222.12 113.208 226.997C111.546 227.777 111.448 228.655 112.328 230.02C116.433 236.458 120.636 242.798 124.742 249.236C125.621 250.504 125.524 251.772 124.448 252.942C115.944 262.209 107.538 271.475 98.9366 280.643C98.3501 281.229 97.4704 281.619 96.5907 281.814C90.2371 282.789 83.8836 283.765 77.5301 284.643C68.4396 286.008 59.3492 287.276 50.161 288.642C46.2512 289.227 42.439 289.91 38.5292 290.397C32.6644 291.178 26.8973 291.958 21.0325 292.738C19.3709 292.933 18.1979 292.348 17.2204 290.885C12.0399 283.472 6.6638 276.254 1.48323 268.841C-0.764942 265.135 -0.471703 263.867 2.4607 260.355ZM70.1991 378.086C70.5901 379.646 71.763 381.109 72.545 382.572C75.1841 381.304 75.4774 379.646 74.7932 377.891C74.4999 377.11 73.2292 375.842 72.7405 376.037C71.6653 376.232 70.0036 377.598 70.1991 378.086ZM75.9661 362.187C74.4999 359.748 73.718 357.505 73.718 354.676C73.718 354.579 73.718 354.579 73.718 354.481C72.545 350.092 72.154 345.605 72.3495 341.021C72.545 337.412 72.4473 333.803 72.3495 330.096C72.2518 328.828 71.6653 327.463 70.9811 326.39C70.6878 325.999 69.2216 325.804 68.8306 326.097C68.0487 326.682 67.3644 327.755 67.1689 328.731C66.1915 335.948 64.823 343.264 66.6802 350.579C66.9734 351.652 66.9735 352.823 67.0712 353.603C67.0712 353.603 67.0712 353.603 66.9735 353.603C67.7554 355.359 68.5374 357.115 69.3194 358.968C70.3946 360.138 71.3721 361.406 72.4473 362.577C73.2292 363.552 74.2067 364.528 74.9887 365.503C75.2819 365.113 75.6729 364.82 76.0639 364.625C76.2594 364.43 76.4549 364.235 76.5526 363.942C76.6504 363.747 76.7481 363.65 76.8459 363.552C76.5526 363.162 76.2594 362.674 75.9661 362.187ZM114.869 354.969C112.23 353.311 109.591 351.555 106.854 350.092C102.944 348.043 99.0343 346.093 95.1245 344.142C92.1921 342.581 88.5755 344.825 88.5755 348.629C88.6732 348.824 88.9664 349.604 89.4552 349.799C95.8087 353.213 102.26 356.529 108.711 359.846C110.568 360.724 115.456 358.285 115.749 356.334C115.847 355.847 115.358 355.164 114.869 354.969ZM343.694 373.599C343.89 373.696 344.183 373.891 344.378 373.989C349.95 370.282 353.273 365.113 354.348 358.675C354.251 356.237 353.957 353.701 352.687 351.652C352.1 351.75 351.612 351.847 351.025 351.847C350.634 351.847 350.145 352.14 348.972 352.53C352.296 353.798 352.687 355.749 351.905 358.188C350.536 362.674 349.07 366.966 345.844 370.478C344.965 371.453 344.378 372.623 343.694 373.599ZM350.341 338.875C350.243 338.875 350.243 338.875 350.341 338.875C350.243 338.875 350.243 338.972 350.341 338.875C350.341 338.875 350.243 338.972 350.341 338.875ZM339.1 338.192C339.1 338.582 338.904 338.972 338.513 339.167C337.536 340.728 336.559 342.191 335.483 343.654C335.288 344.239 335.092 344.825 334.799 345.312C333.626 347.848 333.822 350.189 337.047 351.067C337.634 351.262 338.318 351.262 338.709 351.652C340.762 353.213 342.326 352.043 343.303 350.579C343.499 350.189 343.792 349.994 344.085 349.799C344.574 348.141 345.453 346.58 346.431 345.117C346.431 345.02 346.529 344.922 346.529 344.825C347.799 342.386 348.972 339.85 350.243 337.412C351.514 334.778 351.123 331.559 349.07 329.706C347.995 328.731 346.822 327.755 345.649 326.877C343.499 330.681 341.348 334.485 339.1 338.192ZM272.632 216.658C267.452 214.999 268.722 213.439 264.91 219.974C259.339 229.533 253.963 239.092 248.587 248.748C246.827 251.967 245.165 255.186 243.797 258.6C243.015 260.55 243.015 262.696 242.624 264.745C242.722 264.745 242.82 264.745 242.917 264.745C242.917 265.817 242.82 266.89 242.917 267.866C243.113 269.524 244.286 270.012 245.361 268.744C248.587 265.037 252.203 261.428 254.842 257.234C260.023 248.846 264.715 240.165 269.602 231.679C271.459 228.557 273.316 225.436 275.174 222.217C276.738 219.681 275.956 217.633 272.632 216.658ZM319.16 138.821C319.746 137.845 320.333 136.87 320.724 135.895C321.408 133.846 320.137 132.091 317.302 132.091C316.911 132.383 315.836 132.773 315.348 133.651C313.588 136.382 311.829 139.113 310.46 142.04C310.069 142.82 310.949 144.771 311.731 145.454C312.806 146.234 314.566 146.526 315.543 144.966C316.814 142.918 317.987 140.869 319.16 138.821ZM289.933 186.42C290.52 186.713 291.595 186.42 292.182 186.03C295.798 183.592 297.753 179.788 299.708 176.081C300.001 175.593 298.633 174.033 297.753 173.35C297.069 172.862 295.309 172.57 295.016 172.96C292.279 176.276 289.738 179.788 289.054 184.664C289.249 185.152 289.445 186.128 289.933 186.42ZM285.73 159.012C286.415 161.157 287.197 163.206 287.783 165.352C288.076 166.522 287.881 167.79 288.272 168.961C288.467 169.546 289.347 169.936 289.933 170.229C290.031 170.326 290.813 169.546 290.911 169.058C292.182 164.961 292.768 164.961 296.287 167.595C300.588 170.716 305.084 173.935 310.46 174.911C311.047 175.008 311.633 174.715 312.317 174.52C312.122 173.838 312.122 173.057 311.731 172.57C310.949 171.302 308.603 170.814 309.58 168.863C310.362 167.302 311.535 165.937 312.806 164.766C313.784 163.791 316.032 163.303 316.227 162.328C316.618 160.085 316.52 157.548 315.739 155.5C313.588 149.843 308.212 147.99 303.227 145.746C301.37 144.966 299.415 144.478 297.558 143.698C295.994 142.918 294.625 143.113 293.746 144.478C290.911 148.38 288.272 152.476 285.535 156.476C285.339 156.866 285.242 157.353 285.144 157.841C285.339 158.036 285.535 158.524 285.73 159.012ZM279.572 151.306C281.625 152.476 282.7 151.794 283.678 150.526C286.024 147.404 288.272 144.283 290.227 140.869C290.715 140.089 290.324 138.236 289.542 137.553C281.918 130.335 273.219 124.385 263.835 119.703C256.602 116.094 249.369 112.485 241.94 109.266C235.489 106.535 228.842 103.999 222.097 101.951C215.548 99.9025 208.804 98.0493 201.961 97.0739C195.51 96.196 188.766 94.7329 182.217 97.1714C181.63 97.3665 180.75 96.5862 179.968 96.2936C180.457 95.6108 180.75 94.5379 181.435 94.3428C183.976 93.5625 186.518 93.0748 189.059 92.4895C190.134 92.1969 191.307 92.0018 192.382 91.7092C192.382 91.4166 192.382 91.2215 192.382 90.9289C191.991 90.6363 191.503 90.1486 191.112 90.1486C187.006 90.2461 182.803 90.1486 178.698 90.6363C175.374 91.0264 172.833 93.0748 171.171 96.0985C168.434 100.975 168.434 106.145 169.705 111.412C172.442 122.142 180.555 128.579 188.472 135.309C188.863 135.7 189.743 135.895 190.232 135.7C190.525 135.602 190.818 134.627 190.721 134.139C190.33 131.505 189.939 128.969 189.157 126.433C188.961 125.848 187.69 125.36 186.811 125.165C185.54 124.873 184.269 125.068 182.999 124.775C182.51 124.678 182.119 123.897 181.728 123.41C182.217 123.117 182.705 122.629 183.194 122.629C189.45 122.434 195.706 121.751 201.864 123.507C206.849 124.97 212.029 125.555 217.112 126.726C221.315 127.701 225.323 128.969 229.428 130.14C232.849 131.115 236.173 132.188 239.496 133.359C243.797 134.822 248 136.285 252.203 137.943C255.722 139.309 259.143 140.869 262.467 142.527C268.331 145.356 274.098 148.185 279.572 151.306ZM237.443 137.845C237.053 137.748 236.759 137.65 236.368 137.553C233.436 142.137 230.113 146.331 224.932 148.77C226.594 150.038 228.353 150.135 229.526 148.965C232.165 146.429 234.707 143.795 237.053 140.967C237.639 140.381 237.346 138.918 237.443 137.845ZM231.285 136.09C231.383 135.7 230.699 134.919 230.21 134.724C225.909 133.261 221.609 131.798 217.21 130.53C213.3 129.457 209.39 128.579 205.383 127.604C202.45 127.799 201.961 128.482 202.548 131.213C203.33 134.822 204.014 138.431 204.503 142.04C204.796 144.283 205.969 145.258 207.924 145.551C211.247 146.039 214.669 146.624 217.992 146.527C222.879 146.429 227.278 144.576 230.015 140.186C230.894 139.016 231.09 137.553 231.285 136.09ZM235.88 147.99C239.301 148.477 243.993 145.356 244.481 142.527C244.579 141.845 244.384 140.967 243.895 140.479C243.602 140.186 242.429 140.284 242.038 140.674C240.083 143.015 238.128 145.454 235.88 147.99ZM237.541 151.208C234.609 151.891 231.676 152.867 228.744 153.159C226.3 153.452 223.759 153.159 221.315 152.867C218.676 152.476 216.135 151.794 213.593 151.208C204.405 148.965 195.999 144.868 188.277 139.601C181.826 135.212 176.254 129.945 171.465 123.8C169.021 120.678 167.555 117.167 166.186 113.558C164.916 110.242 164.916 107.023 164.818 103.609C164.72 97.3665 170.683 91.7092 175.374 89.7584C182.412 86.8322 189.548 86.3445 196.781 88.2953C202.45 89.856 208.022 91.5141 213.691 92.9772C216.232 93.66 218.774 94.0502 221.413 94.6354C221.511 94.3428 221.706 94.0502 221.804 93.7575C220.24 92.8797 218.676 91.9043 217.014 91.3191C212.225 89.7584 207.24 88.3929 202.45 86.9298C195.999 84.979 189.352 83.906 182.608 84.5888C176.743 85.1741 171.367 87.1248 166.773 90.9289C164.525 92.7821 163.449 95.3182 162.863 97.8542C161.201 104.292 161.69 110.729 163.449 117.265C166.088 127.116 173.028 133.359 180.75 138.723C187.104 143.113 193.849 147.112 200.789 150.721C206.262 153.549 212.225 155.5 218.285 156.866C222.684 157.939 227.082 157.939 231.579 158.036C236.857 158.134 241.549 156.183 245.654 153.257C248 151.599 249.369 148.282 250.933 145.649C251.128 145.258 250.444 144.283 249.955 143.698C249.857 143.6 248.684 143.99 248.391 144.381C245.654 148.185 241.94 150.233 237.541 151.208ZM255.429 160.377C257.873 157.744 259.925 154.622 261.685 151.403C262.369 150.233 262.271 147.795 261.489 146.819C260.218 145.161 258.264 143.698 255.82 144.283C255.136 144.478 254.158 145.258 253.963 146.039C251.91 153.159 247.023 157.256 240.18 159.402C231.97 162.035 223.759 161.45 215.646 159.499C212.127 158.621 208.706 157.744 205.285 156.573C197.954 154.037 191.014 150.721 184.563 146.527C176.254 141.162 169.119 134.627 163.254 126.531C160.908 123.215 159.442 119.508 158.855 115.606C157.976 109.852 157.682 103.902 159.246 98.1468C160.321 94.1477 161.788 90.3437 165.404 88.1002C167.946 86.4421 170.878 85.4667 173.713 84.2962C178.405 82.3454 183.487 81.4676 188.57 81.9553C192.871 82.3454 197.074 83.4183 201.277 84.1987C204.014 84.6864 206.751 85.1741 209.488 85.9544C212.323 86.7347 215.157 87.515 217.699 88.783C222.879 91.3191 227.962 94.2452 233.045 97.0739C233.827 97.4641 234.707 97.9517 235.489 98.3419C235.684 98.0493 235.88 97.7567 236.075 97.4641C234.022 95.9034 232.067 94.0502 229.819 92.7822C224.443 89.9535 219.067 87.0273 213.496 84.8814C209.195 83.2233 204.405 82.9306 200.007 81.5651C193.555 79.6143 186.909 79.7118 180.457 80.5897C171.367 81.7602 162.961 84.7839 157.682 92.9772C153.87 98.8296 152.99 105.462 153.772 112.388C155.141 124.19 162.081 132.578 170.389 140.186C177.329 146.527 184.66 152.184 193.067 156.183C197.27 158.134 201.766 159.499 206.165 161.06C214.082 163.791 222.391 164.279 230.699 164.376C241.353 164.474 249.955 160.182 256.602 151.794C257.188 151.111 257.775 150.331 258.459 149.94C259.045 149.648 259.827 149.843 260.512 149.843C260.512 150.526 260.707 151.501 260.414 151.891C257.384 156.085 253.669 159.597 249.075 162.133C238.519 167.985 227.278 168.863 215.744 167.302C211.541 166.717 207.533 165.059 203.428 163.791C200.691 162.913 197.856 162.133 195.217 160.865C189.548 158.134 183.781 155.598 178.6 152.184C168.825 145.844 161.201 137.26 154.945 127.409C150.547 120.483 149.569 112.778 150.254 104.682C151.036 96.6837 154.554 90.2461 160.615 85.1741C162.179 83.906 163.84 82.8331 165.502 81.6626C165.404 81.4676 165.307 81.2725 165.209 81.1749C159.442 82.1503 155.239 85.6618 151.915 90.2461C146.148 98.0493 144.877 106.925 146.637 116.192C148.983 128.482 154.945 139.113 164.818 146.917C171.562 152.281 178.796 157.158 186.224 161.645C192.187 165.157 198.736 167.498 205.578 169.156C213.691 171.106 221.804 171.984 230.113 171.497C239.594 170.716 248.587 167.888 255.429 160.377ZM139.306 122.629C140.674 127.506 142.923 132.286 145.464 136.675C151.915 147.697 161.69 155.5 172.442 162.035C177.818 165.254 183.292 168.473 188.961 170.911C193.946 173.057 199.42 174.228 204.698 175.593C213.789 177.934 223.075 177.349 232.263 176.764C237.248 176.471 242.135 174.911 246.534 172.375C246.632 172.375 246.632 172.082 246.632 171.789C246.241 171.692 245.752 171.497 245.459 171.594C235.88 175.301 225.812 174.325 215.841 174.033C211.736 173.935 207.631 172.862 203.721 171.692C198.052 170.034 192.382 168.18 187.104 165.644C181.239 162.816 175.57 159.304 170.096 155.695C163.058 151.111 157.096 145.258 152.208 138.431C148.005 132.383 144.486 126.043 142.923 118.533C141.554 111.802 142.043 105.462 143.607 99.0247C144.877 93.9526 147.028 89.0756 151.329 85.5642C151.622 85.3691 151.72 84.8814 152.013 84.1987C148.787 84.1011 146.832 86.0519 145.073 87.8076C141.554 91.2215 139.99 95.5133 138.915 100.293C137.253 107.998 137.253 115.411 139.306 122.629ZM131.682 126.726C133.539 124.092 134.223 121.459 134.028 118.435C133.539 111.802 134.321 105.267 135.787 98.7321C135.787 98.6345 135.689 98.4395 135.396 97.5616C133.441 99.4148 131.584 100.78 130.215 102.634C127.674 105.95 125.426 109.461 123.275 113.07C122.884 113.656 122.982 114.924 123.373 115.606C125.524 119.02 127.87 122.239 130.215 125.555C130.509 126.043 131.095 126.336 131.682 126.726ZM126.697 135.017C127.088 135.505 128.065 135.992 128.456 135.797C129.043 135.407 129.824 134.529 129.727 133.944C129.434 132.383 128.945 130.725 128.261 129.36C126.892 126.823 125.328 124.385 123.764 121.849C123.666 121.654 123.373 121.654 122.689 121.361C122.689 126.531 123.275 131.213 126.697 135.017ZM27.4838 238.311C26.5064 236.848 25.6266 236.946 24.6492 238.116C23.7694 239.189 22.8897 240.165 22.3032 241.335C22.01 242.018 22.01 243.188 22.401 243.774C27.2883 250.699 32.2734 257.624 37.1607 264.452C37.9427 265.525 39.0179 265.915 39.9954 264.647C40.9728 263.379 41.8526 262.111 42.9278 260.648C41.6571 258.795 40.6796 257.332 39.6044 255.771C35.5968 250.114 31.4914 244.261 27.4838 238.311ZM51.725 261.818C48.7926 260.745 47.0331 262.111 45.3714 263.477C44.785 263.964 43.9052 264.647 43.9052 265.33C43.8075 266.403 41.1683 267.085 43.0255 268.061C44.1007 268.646 46.3489 268.256 47.3264 267.476C49.0858 266.11 50.161 263.964 51.725 261.818ZM51.5295 266.695C57.0033 267.378 60.3267 265.915 62.4771 261.916C63.0636 260.94 62.9658 260.258 61.5974 260.063C58.5672 259.77 55.9281 260.16 54.2664 263.184C53.6799 264.354 52.6047 265.33 51.5295 266.695ZM88.5755 226.411C87.989 223.973 87.598 221.437 86.816 218.998C85.643 215.682 81.6354 213.536 76.4549 213.536C72.936 213.244 69.6126 214.512 67.5599 218.023C66.8757 219.291 66.387 220.852 66.2892 222.315C66.2892 222.803 67.5599 223.875 68.2441 223.875C69.9058 223.973 71.5675 223.68 73.2292 223.485C75.2819 223.29 76.1616 224.071 75.8684 225.924C75.3797 229.143 74.5977 232.264 74.2067 235.385C74.1089 236.361 74.9887 237.433 75.3797 238.506C76.1616 238.116 77.0414 237.824 77.7256 237.336C79.7783 235.873 82.0264 234.41 83.7858 232.654C85.5453 230.996 86.816 228.85 88.2822 226.899C88.6732 226.899 88.6732 226.607 88.5755 226.411ZM68.6351 232.361C69.6126 233.142 70.1013 233.824 70.7856 234.02C71.0788 234.117 71.6653 233.629 72.154 233.337C71.5675 232.654 71.1766 231.971 70.4923 231.484C70.3946 231.386 69.7103 231.874 68.6351 232.361ZM118.681 247.09C116.14 242.506 113.501 238.019 110.862 233.532C109.689 231.581 107.929 231.093 105.779 231.971C105.192 232.166 104.606 232.556 104.019 232.361C103.14 232.166 102.064 231.874 101.478 231.288C101.185 230.996 101.673 229.533 102.26 229.143C105.29 226.704 108.32 224.363 111.448 221.925C117.802 216.95 124.155 211.976 130.411 206.904C131.584 205.928 132.561 204.66 133.539 203.49C134.907 201.929 134.516 200.368 133.148 199.1C128.652 194.711 124.448 190.127 121.125 184.762C119.854 182.714 117.411 183.299 116.238 185.737C110.764 197.54 102.749 207.196 92.583 215.292C90.2371 217.243 89.7484 219.096 90.8236 221.925C91.1169 222.802 91.0191 223.778 91.5079 224.558C92.3876 226.021 93.4628 227.387 94.538 228.752C94.929 229.24 95.7109 229.435 96.1019 229.923C96.3952 230.313 96.7862 231.191 96.6884 231.386C96.2974 231.874 95.3199 232.361 95.0267 232.166C92.6808 230.508 90.8236 232.264 89.2597 233.239C85.9363 235.288 82.9061 237.726 79.876 240.067C77.3346 242.018 73.718 241.237 72.154 238.311C71.8608 237.726 71.372 237.238 70.8833 236.751C69.1239 235.19 67.3644 233.824 65.605 232.264C64.2366 230.996 62.6726 230.898 61.8906 232.459C61.0109 234.117 60.2289 235.97 59.5447 237.824C59.3492 238.311 60.1312 238.994 60.4244 239.579C60.8154 240.36 61.4996 241.335 61.3041 242.018C61.2064 242.603 60.0334 243.286 59.3492 243.481C56.2213 244.066 53.2889 241.725 53.2889 238.799C53.2889 238.019 53.7777 237.141 54.1686 236.458C55.7326 234.117 57.492 231.874 57.3943 228.46C55.4393 228.557 53.7776 228.557 52.116 228.752C47.2286 229.435 42.439 230.216 37.5517 230.898C35.5968 231.191 33.6419 231.288 31.6869 231.484C28.4613 231.679 28.1681 232.166 29.9275 234.8C34.5216 241.823 39.1157 248.748 43.7097 255.673C45.0782 257.819 46.8376 258.892 49.5745 258.502C55.4393 257.624 61.3042 256.941 67.0712 256.259C74.3045 255.478 81.5377 254.893 88.7709 254.21C89.2597 254.113 89.8461 254.21 90.3349 254.113C90.5304 254.015 90.6281 254.015 90.8236 254.015C91.0191 253.82 91.3123 253.723 91.7033 253.723C93.365 253.82 95.0267 253.918 96.5907 253.332C96.7862 253.332 96.8839 253.332 97.0794 253.332C97.9591 252.942 98.9366 252.845 100.11 252.747C105.583 252.357 111.057 251.382 116.531 250.601C118.877 250.309 119.757 249.041 118.681 247.09ZM65.0185 263.477C67.6577 264.842 70.0036 263.769 71.9585 260.258C68.1464 259.185 65.996 260.258 65.0185 263.477ZM73.8157 264.745C75.4774 264.452 77.2368 263.867 78.703 262.989C79.6805 262.404 80.267 261.233 80.9512 260.258C81.2444 259.868 81.5377 259.282 81.7332 258.892C81.2445 258.697 80.7557 258.502 80.1692 258.209C76.2594 257.819 74.7932 260.94 72.6427 262.989C71.763 263.867 72.7405 264.94 73.8157 264.745ZM84.2746 263.086C84.9588 263.184 85.9363 262.989 86.816 262.599C87.0115 262.404 87.207 262.306 87.5002 262.209C87.598 262.209 87.598 262.209 87.6957 262.209C89.3574 261.331 91.0191 260.063 91.4101 258.892C91.8988 257.624 91.3123 257.136 89.7484 257.136C88.3799 257.136 83.7859 260.355 83.3949 261.721C83.2971 262.111 83.8836 262.989 84.2746 263.086ZM93.1695 261.331C93.5605 261.428 93.8538 261.428 94.147 261.526C95.5154 261.428 96.8839 261.428 98.2524 261.331C99.6208 259.672 100.696 257.917 101.576 255.966C101.478 255.868 101.38 255.868 101.283 255.771C100.501 255.771 99.8163 255.868 99.0343 255.966C97.9591 256.161 97.1771 256.746 96.1997 256.941C96.1019 257.136 96.0042 257.234 95.8087 257.332C94.929 258.697 94.147 259.965 93.1695 261.331ZM101.967 261.233C102.455 261.233 102.944 261.233 103.531 261.136C103.726 261.038 103.922 260.94 104.117 260.843C104.215 260.94 104.215 261.038 104.313 261.136C104.41 261.136 104.508 261.136 104.508 261.136C105.192 261.038 105.779 260.94 106.463 260.843C107.832 259.185 109.298 257.429 110.666 255.673C108.907 254.6 106.365 255.478 104.117 257.332C103.531 258.697 102.846 259.965 101.967 261.233ZM117.997 255.771C118.29 255.478 118.29 254.893 118.486 254.405C117.997 254.308 117.215 253.82 116.922 254.015C115.358 254.991 113.892 256.161 112.523 257.332C111.546 258.209 110.568 259.282 109.591 260.258C110.666 260.063 111.644 259.965 112.719 259.868C114.478 258.502 116.335 257.136 117.997 255.771ZM96.4929 278.4C98.4478 276.839 100.305 275.084 102.162 273.426C104.215 271.572 106.365 269.817 108.418 267.963C109.689 266.793 111.155 265.622 111.937 264.159C112.132 263.867 112.132 263.477 112.23 263.086C111.839 263.184 111.35 263.281 110.959 263.281C110.568 263.574 110.275 263.867 109.884 263.769C107.147 263.379 105.388 264.159 103.628 266.598C101.087 270.109 97.8614 273.035 95.0267 276.352C94.538 276.839 94.6357 277.717 94.3425 278.498C95.1245 278.498 96.0042 278.79 96.4929 278.4ZM87.207 279.766C88.2822 279.473 89.0642 278.985 89.8461 278.4C90.3349 278.4 90.8236 278.303 91.2146 277.815C93.9515 274.011 96.9817 270.499 100.305 267.183C101.087 266.403 100.598 264.549 99.3276 264.745C97.0794 265.037 95.5155 265.037 94.3425 267.085C92.7786 269.622 90.8236 271.962 88.9664 274.303C88.8687 274.401 88.7709 274.596 88.7709 274.694C87.7935 275.767 86.816 276.839 85.8385 277.815C85.4475 278.303 85.3498 279.083 85.0566 279.668C85.7408 279.668 86.5228 279.961 87.207 279.766ZM76.2594 281.424C77.7256 280.839 79.485 280.643 80.4625 279.668C83.9813 276.059 87.3047 272.353 90.5304 268.549C90.7259 268.451 90.8236 268.256 90.9214 268.158C91.0191 268.061 91.0191 268.061 91.1168 267.963C91.4101 267.573 91.4101 266.695 91.2146 266.11C91.2146 266.013 91.0191 266.013 90.8236 265.915C90.6281 265.915 90.3349 265.915 90.1394 265.915C87.598 265.135 86.3273 267.476 84.9588 269.231C83.8836 270.597 82.8084 271.767 81.9287 273.23C80.1692 275.181 78.5075 277.132 76.7481 279.083C76.3571 279.571 76.1616 280.253 75.8684 280.839C75.9661 280.936 76.1616 281.131 76.2594 281.424ZM68.0487 282.594C69.9059 281.326 71.8608 279.961 73.4247 278.4C76.1616 275.669 78.703 272.645 81.2445 269.719C81.7332 269.134 82.0264 268.256 82.6129 267.085C79.9737 267.378 78.0188 267.476 76.4549 269.134C73.0337 272.938 69.7103 276.644 66.387 280.546C65.996 281.034 65.996 281.814 65.8005 282.497C66.5825 282.497 67.5599 282.887 68.0487 282.594ZM57.883 284.35C58.8605 284.057 59.9357 283.667 60.5222 282.984C64.3343 278.888 68.0487 274.694 71.6653 270.402C72.0563 270.012 72.2518 269.329 72.2518 268.841C72.2518 268.549 71.5675 268.256 70.6878 267.671C69.0261 268.744 67.1689 269.622 65.8982 271.085C62.6726 274.694 59.7402 278.595 56.7101 282.399C56.4168 282.789 56.3191 283.472 56.2213 283.96C56.8078 284.155 57.3943 284.448 57.883 284.35ZM52.116 283.375C54.2664 280.546 58.3717 274.694 60.6199 271.865C61.1087 271.28 61.2064 270.402 61.4996 269.622C60.6199 269.719 59.6424 269.524 59.056 270.012C57.2965 271.377 53.8754 275.962 52.3115 277.62C50.552 279.375 48.8903 281.326 47.3264 283.277C46.8376 283.862 46.4467 284.643 45.7624 285.716C48.6948 286.106 50.552 285.423 52.116 283.375ZM39.0179 286.398C40.7774 285.423 42.6345 284.545 43.9052 283.082C46.9354 279.961 49.6723 276.547 52.4092 273.328C52.8979 272.743 53.1912 271.962 53.6799 270.987C50.4543 270.207 48.4016 270.89 46.6421 273.035C43.7097 276.839 40.5819 280.448 37.5517 284.155C37.1607 284.643 37.1607 285.423 36.9652 286.106C37.6495 286.301 38.4314 286.691 39.0179 286.398ZM32.6644 286.106C35.7923 282.204 39.0179 278.4 42.0481 274.498C42.5368 273.816 42.6345 272.84 42.83 271.962C41.8526 271.962 40.6796 271.572 39.9954 272.06C38.6269 272.938 37.454 274.108 36.3787 275.376C33.3486 278.888 30.4162 282.497 27.4838 286.106C27.0928 286.593 26.9951 287.276 26.6041 288.154C29.4387 289.032 31.1982 287.959 32.6644 286.106ZM5.78407 267.183C10.1827 273.621 14.5813 279.961 19.1754 286.203C20.8371 288.447 21.7168 288.349 23.3785 286.106C27.2883 280.936 31.1982 275.767 34.9125 270.402C35.5968 269.426 35.7923 267.183 35.2058 266.305C30.905 259.77 26.3109 253.43 21.8145 246.992C21.3258 246.407 20.6416 245.919 19.9573 245.432C19.1754 246.017 18.4911 246.31 18.0024 246.895C13.7993 252.259 9.5962 257.819 5.39309 263.086C3.92689 264.842 5.0021 266.11 5.78407 267.183Z" fill="black"/>
</svg>
