<svg width="271" height="65" viewBox="0 0 271 65" fill="none" xmlns="http://www.w3.org/2000/svg">
<g clip-path="url(#clip0)">
<path d="M78.728 0V26.6547H67.4363V0H39.6777V26.6547H28.5428V0H0C0 0 21.015 65.6235 21.4855 64.8441H42.3437V58.4532C42.3437 52.2182 47.3623 47.2302 53.6354 47.2302C59.9086 47.2302 64.9271 52.2182 64.9271 58.4532V64.8441H85.9421C86.4126 65.7794 106.957 0 106.957 0H78.728Z" fill="black"/>
<path d="M112.133 23.6931H118.249L121.856 33.0456C122.483 34.7602 123.267 37.4101 123.267 37.4101C123.267 37.4101 124.052 34.7602 124.836 33.0456L129.854 23.2255H130.482L135.657 33.5132C136.441 35.2279 137.382 37.8777 137.382 37.8777C137.382 37.8777 138.166 35.2279 138.793 33.5132L142.557 23.6931H148.046L137.852 47.2303H137.225L131.579 36.1631C130.795 34.7602 130.325 32.2662 130.325 32.2662C130.325 32.2662 129.697 34.6044 128.913 36.1631L122.954 47.2303H122.326L112.133 23.6931Z" fill="#A81E22"/>
<path d="M151.497 7.17029H156.986V27.7458C158.397 24.9401 161.22 23.2254 164.67 23.2254C169.846 23.2254 173.296 26.8106 173.296 33.0456V46.6067H167.807V33.5132C167.807 30.2398 166.238 28.3693 163.102 28.3693C159.495 28.3693 157.142 30.5516 157.142 34.2926V46.7626H151.653V7.17029H151.497Z" fill="#A81E22"/>
<path d="M178.471 14.8082C178.471 12.7818 180.196 11.223 182.078 11.223C184.117 11.223 185.842 12.7818 185.842 14.8082C185.842 16.9904 184.117 18.3933 182.078 18.3933C180.196 18.3933 178.471 16.9904 178.471 14.8082ZM179.412 23.693H185.058V46.6067H179.412V23.693Z" fill="#A81E22"/>
<path d="M192.586 38.813V28.2135H189.135V23.5372H192.586V11.6907H198.075V23.6931H204.191V28.3693H198.075V38.9688C198.075 41.6187 199.016 42.3981 200.427 42.3981C201.682 42.3981 202.623 41.7746 203.25 41.307L205.916 45.048C204.818 46.1391 202.936 47.2302 199.957 47.2302C195.565 47.2302 192.586 45.048 192.586 38.813Z" fill="#A81E22"/>
<path d="M208.739 14.8082C208.739 12.7818 210.464 11.223 212.346 11.223C214.228 11.223 215.953 12.7818 215.953 14.8082C215.953 16.9904 214.228 18.3933 212.346 18.3933C210.464 18.3933 208.739 16.9904 208.739 14.8082ZM209.523 23.693H215.169V46.6067H209.523V23.693Z" fill="#A81E22"/>
<path d="M221.442 23.6931H226.931L226.774 27.9017C228.186 24.9401 231.166 23.2255 234.616 23.2255C239.791 23.2255 243.241 26.8106 243.241 33.0456V46.6068H237.752V33.5132C237.752 30.2399 236.184 28.3694 233.047 28.3694C229.44 28.3694 227.088 30.5516 227.088 34.2926V46.7626H221.599V23.6931H221.442Z" fill="#A81E22"/>
<path d="M270.686 23.6931V27.7458H266.766C267.707 28.837 268.02 30.084 268.02 31.4869C268.02 36.319 264.256 39.9041 258.611 39.9041C256.729 39.9041 255.16 39.5924 253.906 38.813C253.122 39.2806 252.651 39.9041 252.651 40.8394C252.651 42.0864 253.592 42.7099 255.317 42.8657L261.12 43.1775C267.55 43.4893 271 45.9833 271 50.5036C271 55.4916 266.922 58.765 258.454 58.765C250.612 58.765 246.378 55.8034 246.378 51.283C246.378 48.4773 248.417 46.7626 251.24 45.8274C249.201 44.8921 248.26 43.4893 248.26 41.307C248.26 39.2806 249.358 37.8777 251.396 36.9425C249.985 35.5396 249.201 33.6691 249.201 31.4869C249.201 26.6547 253.122 23.2255 258.767 23.2255C260.022 23.2255 261.12 23.3813 262.061 23.6931H270.686V23.6931ZM251.867 50.6595C251.867 53.1535 253.906 54.5564 258.454 54.5564C263.159 54.5564 265.197 53.1535 265.197 50.8154C265.197 48.9449 264.1 48.1655 260.022 47.8538L253.592 47.3861C252.494 48.1655 251.867 49.2566 251.867 50.6595ZM263.159 31.4869C263.159 28.9929 261.433 27.4341 258.611 27.4341C255.788 27.4341 254.219 29.1487 254.219 31.4869C254.219 33.9809 255.788 35.6955 258.611 35.6955C261.433 35.6955 263.159 33.9809 263.159 31.4869Z" fill="#A81E22"/>
<path d="M151.653 51.283H161.22V54.2446H155.26V57.3621H160.122V60.1679H155.26V61.5708H161.377V64.5324H151.653V51.283Z" fill="black"/>
<path d="M163.729 51.283H167.336V61.7267H173.139V64.6883H163.729V51.283Z" fill="black"/>
<path d="M174.55 51.283H184.117V54.2446H178.157V57.3621H183.019V60.1679H178.157V61.5708H184.274V64.5324H174.55V51.283Z" fill="black"/>
<path d="M192.742 65C188.979 65 185.685 62.1943 185.685 58.1415C185.685 54.0888 188.979 51.283 192.586 51.283C195.565 51.283 197.291 52.53 198.388 54.2446L195.722 56.1152C195.252 55.3358 194.311 54.5564 192.586 54.5564C190.547 54.5564 189.449 56.271 189.449 58.2974C189.449 60.4797 190.704 62.0384 192.742 62.0384C194.468 62.0384 195.409 61.259 195.879 60.1679L198.702 61.8825C197.291 64.0648 195.409 65 192.742 65Z" fill="black"/>
<path d="M203.093 54.4005H199.486V51.4388H210.307V54.4005H206.7V64.8441H203.093V54.4005V54.4005Z" fill="black"/>
<path d="M222.697 64.8442H218.776L216.894 61.7267H215.483V64.8442H211.875V51.283H217.051C220.658 51.283 222.697 53.6211 222.697 56.5828C222.697 58.4533 221.913 60.012 220.187 60.9473L222.697 64.8442ZM216.894 58.765C218.462 58.765 219.09 57.8298 219.09 56.5828C219.09 55.3358 218.462 54.4005 216.894 54.4005H215.483V58.9209H216.894V58.765Z" fill="black"/>
<path d="M224.892 51.283H228.499V64.8442H224.892V51.283Z" fill="black"/>
<path d="M237.752 65C233.988 65 230.695 62.1943 230.695 58.1415C230.695 54.0888 233.988 51.283 237.595 51.283C240.575 51.283 242.3 52.53 243.398 54.2446L240.732 56.1152C240.261 55.3358 239.321 54.5564 237.595 54.5564C235.557 54.5564 234.459 56.271 234.459 58.2974C234.459 60.4797 235.713 62.0384 237.752 62.0384C239.477 62.0384 240.418 61.259 240.889 60.1679L243.712 61.8825C242.3 64.0648 240.418 65 237.752 65Z" fill="black"/>
</g>
<defs>
<clipPath id="clip0">
<rect width="271" height="65" fill="white"/>
</clipPath>
</defs>
</svg>
