<svg width="281" height="31" viewBox="0 0 281 31" fill="none" xmlns="http://www.w3.org/2000/svg">
<path d="M6.20591 22.261C9.65691 22.261 10.9329 20.55 10.9329 18.462C10.9329 15.881 8.84491 15.127 6.93091 14.634C5.01691 14.141 4.26291 13.938 4.26291 13.01C4.26291 12.285 4.87191 11.879 5.97391 11.879C7.07591 11.879 7.91691 12.401 8.49691 13.068L10.2079 11.386C9.27991 10.371 7.91691 9.55901 5.97391 9.55901C3.56691 9.55901 1.62391 10.719 1.62391 13.155C1.62391 15.562 3.42191 16.403 5.21991 16.896C7.27891 17.476 8.17791 17.621 8.17791 18.607C8.17791 19.419 7.51091 19.912 6.03191 19.912C4.63991 19.912 3.50891 19.419 2.75491 18.346L0.753906 19.738C1.56591 21.043 3.42191 22.261 6.20591 22.261Z" fill="black"/>
<path d="M19.779 22.261C22.128 22.261 23.578 21.42 24.767 20.057L22.766 18.317C22.099 19.071 21.229 19.68 19.779 19.68C17.604 19.68 16.299 18.085 16.299 15.91C16.299 13.735 17.604 12.14 19.779 12.14C21.026 12.14 22.041 12.72 22.621 13.561L24.709 11.879C23.549 10.429 22.07 9.55901 19.779 9.55901C16.067 9.55901 13.283 12.285 13.283 15.91C13.283 19.564 16.067 22.261 19.779 22.261Z" fill="black"/>
<path d="M33.3748 22.261C37.0868 22.261 39.9288 19.535 39.9288 15.91C39.9288 12.285 37.0868 9.55901 33.3748 9.55901C29.6918 9.55901 26.7918 12.285 26.7918 15.91C26.7918 19.535 29.6918 22.261 33.3748 22.261ZM33.3748 19.738C31.1998 19.738 29.8078 18.143 29.8078 15.91C29.8078 13.677 31.1998 12.111 33.3748 12.111C35.5498 12.111 36.9128 13.677 36.9128 15.91C36.9128 18.143 35.5498 19.738 33.3748 19.738Z" fill="black"/>
<path d="M47.4194 22.29C49.0724 22.29 49.9714 21.681 50.5804 21.13L49.3624 19.129C49.0434 19.39 48.6084 19.767 47.8254 19.767C47.0714 19.767 46.6074 19.361 46.6074 17.94V12.285H49.8554V9.82001H46.6074V5.12201H43.6784V9.82001H41.8514V12.285H43.6784V17.882C43.6784 21.13 45.2734 22.29 47.4194 22.29Z" fill="black"/>
<path d="M57.813 22.29C59.466 22.29 60.365 21.681 60.974 21.13L59.756 19.129C59.437 19.39 59.002 19.767 58.219 19.767C57.465 19.767 57.001 19.361 57.001 17.94V12.285H60.249V9.82001H57.001V5.12201H54.072V9.82001H52.245V12.285H54.072V17.882C54.072 21.13 55.667 22.29 57.813 22.29Z" fill="black"/>
<path d="M74.1085 22.29H74.4275L77.5595 16.374C77.9365 15.649 78.2845 14.46 78.3135 14.344C78.3425 14.46 78.6035 15.649 79.0095 16.374L82.0255 22.29H82.3445L87.6805 9.82001H84.7515L82.7505 15.04C82.4025 15.939 82.0255 17.331 82.0255 17.331C82.0255 17.331 81.5905 15.91 81.1555 15.04L78.4585 9.58801H78.1685L75.5585 14.808C75.0945 15.707 74.7175 17.099 74.7175 17.099C74.7175 17.099 74.3405 15.736 73.9925 14.808L72.0495 9.82001H68.8015L74.1085 22.29Z" fill="black"/>
<path d="M90.017 22H92.946V15.388C92.946 13.416 94.193 12.256 96.107 12.256C97.818 12.256 98.63 13.271 98.63 15.011V22H101.559V14.779C101.559 11.473 99.703 9.55901 97.006 9.55901C95.179 9.55901 93.729 10.458 92.946 11.966V1.06201H90.017V22Z" fill="black"/>
<path d="M106.734 7.03601C107.778 7.03601 108.677 6.25301 108.677 5.09301C108.677 3.99101 107.778 3.17901 106.734 3.17901C105.69 3.17901 104.791 3.99101 104.791 5.09301C104.791 6.25301 105.69 7.03601 106.734 7.03601ZM105.255 22H108.213V9.82001H105.255V22Z" fill="black"/>
<path d="M116.691 22.29C118.344 22.29 119.243 21.681 119.852 21.13L118.634 19.129C118.315 19.39 117.88 19.767 117.097 19.767C116.343 19.767 115.879 19.361 115.879 17.94V12.285H119.127V9.82001H115.879V5.12201H112.95V9.82001H111.123V12.285H112.95V17.882C112.95 21.13 114.545 22.29 116.691 22.29Z" fill="black"/>
<path d="M123.84 7.03601C124.884 7.03601 125.783 6.25301 125.783 5.09301C125.783 3.99101 124.884 3.17901 123.84 3.17901C122.796 3.17901 121.897 3.99101 121.897 5.09301C121.897 6.25301 122.796 7.03601 123.84 7.03601ZM122.361 22H125.319V9.82001H122.361V22Z" fill="black"/>
<path d="M129.127 22H132.056V15.388C132.056 13.416 133.303 12.256 135.217 12.256C136.928 12.256 137.74 13.271 137.74 15.011V22H140.669V14.779C140.669 11.473 138.813 9.55901 136.116 9.55901C134.289 9.55901 132.752 10.487 131.998 12.082L132.056 9.82001H129.127V22Z" fill="black"/>
<path d="M150.224 28.438C153.791 28.438 156.546 26.64 156.546 22.174V9.82001H153.617L153.704 12.082C152.921 10.603 151.5 9.55901 149.354 9.55901C146.251 9.55901 143.699 12.198 143.699 15.881C143.699 19.564 146.251 22.261 149.412 22.261C151.442 22.261 152.892 21.275 153.617 19.912V22.029C153.617 24.755 152.283 25.973 150.079 25.973C148.136 25.973 146.947 25.074 145.99 23.682L143.873 25.248C144.975 27.075 147.092 28.438 150.224 28.438ZM150.166 19.68C148.049 19.68 146.715 18.172 146.715 15.881C146.715 13.677 148.049 12.169 150.166 12.169C152.312 12.169 153.704 13.677 153.704 15.881C153.704 18.172 152.312 19.68 150.166 19.68Z" fill="black"/>
<path d="M177.898 9.71201H182.292C182.383 7.80101 181.33 6.42301 179.471 6.42301C177.833 6.42301 176.559 7.64501 176.559 9.27001C176.559 10.908 177.768 12.117 179.64 12.117C180.732 12.117 181.434 11.74 181.941 11.233L181.174 10.427C180.862 10.726 180.342 11.012 179.627 11.012C178.626 11.012 178.054 10.505 177.898 9.71201ZM177.898 8.80201C178.054 7.98301 178.639 7.51501 179.484 7.51501C180.394 7.51501 180.849 8.06101 180.966 8.80201H177.898Z" fill="black"/>
<path d="M183.74 12H185.053V2.61401H183.74V12Z" fill="black"/>
<path d="M187.839 9.71201H192.233C192.324 7.80101 191.271 6.42301 189.412 6.42301C187.774 6.42301 186.5 7.64501 186.5 9.27001C186.5 10.908 187.709 12.117 189.581 12.117C190.673 12.117 191.375 11.74 191.882 11.233L191.115 10.427C190.803 10.726 190.283 11.012 189.568 11.012C188.567 11.012 187.995 10.505 187.839 9.71201ZM187.839 8.80201C187.995 7.98301 188.58 7.51501 189.425 7.51501C190.335 7.51501 190.79 8.06101 190.907 8.80201H187.839Z" fill="black"/>
<path d="M196.267 12.117C197.32 12.117 197.97 11.74 198.503 11.129L197.606 10.349C197.307 10.687 196.917 10.96 196.267 10.96C195.292 10.96 194.707 10.245 194.707 9.27001C194.707 8.29501 195.292 7.58001 196.267 7.58001C196.826 7.58001 197.281 7.84001 197.541 8.21701L198.477 7.46301C197.957 6.81301 197.294 6.42301 196.267 6.42301C194.603 6.42301 193.355 7.64501 193.355 9.27001C193.355 10.908 194.603 12.117 196.267 12.117Z" fill="black"/>
<path d="M201.84 12.13C202.581 12.13 202.984 11.857 203.257 11.61L202.711 10.713C202.568 10.83 202.373 10.999 202.022 10.999C201.684 10.999 201.476 10.817 201.476 10.18V7.64501H202.932V6.54001H201.476V4.43401H200.163V6.54001H199.344V7.64501H200.163V10.154C200.163 11.61 200.878 12.13 201.84 12.13Z" fill="black"/>
<path d="M204.406 12H205.719V9.34801C205.719 8.12601 206.252 7.67101 207.032 7.67101C207.331 7.67101 207.539 7.74901 207.747 7.85301L208.189 6.67001C207.955 6.52701 207.682 6.43601 207.292 6.43601C206.694 6.43601 206.07 6.70901 205.706 7.56701L205.719 6.54001H204.406V12Z" fill="black"/>
<path d="M209.958 5.29201C210.426 5.29201 210.829 4.94101 210.829 4.42101C210.829 3.92701 210.426 3.56301 209.958 3.56301C209.49 3.56301 209.087 3.92701 209.087 4.42101C209.087 4.94101 209.49 5.29201 209.958 5.29201ZM209.295 12H210.621V6.54001H209.295V12Z" fill="black"/>
<path d="M214.967 12.117C216.02 12.117 216.67 11.74 217.203 11.129L216.306 10.349C216.007 10.687 215.617 10.96 214.967 10.96C213.992 10.96 213.407 10.245 213.407 9.27001C213.407 8.29501 213.992 7.58001 214.967 7.58001C215.526 7.58001 215.981 7.84001 216.241 8.21701L217.177 7.46301C216.657 6.81301 215.994 6.42301 214.967 6.42301C213.303 6.42301 212.055 7.64501 212.055 9.27001C212.055 10.908 213.303 12.117 214.967 12.117Z" fill="black"/>
<path d="M221.749 8.75001H220.254C219.019 8.76301 218.109 9.25701 218.109 10.388C218.109 11.61 218.993 12.117 220.072 12.117C220.878 12.117 221.398 11.805 221.788 11.22L221.749 12H223.062V8.77601C223.062 7.16401 222.074 6.42301 220.761 6.42301C219.604 6.42301 218.954 6.82601 218.473 7.39801L219.227 8.16501C219.526 7.82701 219.942 7.51501 220.657 7.51501C221.359 7.51501 221.749 7.87901 221.749 8.75001ZM221.749 9.66001V10.089C221.749 10.687 221.203 11.064 220.436 11.064C219.76 11.064 219.396 10.817 219.396 10.349C219.396 9.86801 219.773 9.66001 220.345 9.66001H221.749Z" fill="black"/>
<path d="M224.72 12H226.033V2.61401H224.72V12Z" fill="black"/>
<path d="M231.79 9.71201H236.184C236.275 7.80101 235.222 6.42301 233.363 6.42301C231.725 6.42301 230.451 7.64501 230.451 9.27001C230.451 10.908 231.66 12.117 233.532 12.117C234.624 12.117 235.326 11.74 235.833 11.233L235.066 10.427C234.754 10.726 234.234 11.012 233.519 11.012C232.518 11.012 231.946 10.505 231.79 9.71201ZM231.79 8.80201C231.946 7.98301 232.531 7.51501 233.376 7.51501C234.286 7.51501 234.741 8.06101 234.858 8.80201H231.79Z" fill="black"/>
<path d="M237.579 12H238.892V9.03601C238.892 8.15201 239.451 7.63201 240.309 7.63201C241.076 7.63201 241.44 8.08701 241.44 8.86701V12H242.753V8.76301C242.753 7.28101 241.921 6.42301 240.712 6.42301C239.893 6.42301 239.204 6.83901 238.866 7.55401L238.892 6.54001H237.579V12Z" fill="black"/>
<path d="M247.036 14.886C248.635 14.886 249.87 14.08 249.87 12.078V6.54001H248.557L248.596 7.55401C248.245 6.89101 247.608 6.42301 246.646 6.42301C245.255 6.42301 244.111 7.60601 244.111 9.25701C244.111 10.908 245.255 12.117 246.672 12.117C247.582 12.117 248.232 11.675 248.557 11.064V12.013C248.557 13.235 247.959 13.781 246.971 13.781C246.1 13.781 245.567 13.378 245.138 12.754L244.189 13.456C244.683 14.275 245.632 14.886 247.036 14.886ZM247.01 10.96C246.061 10.96 245.463 10.284 245.463 9.25701C245.463 8.26901 246.061 7.59301 247.01 7.59301C247.972 7.59301 248.596 8.26901 248.596 9.25701C248.596 10.284 247.972 10.96 247.01 10.96Z" fill="black"/>
<path d="M252.233 5.29201C252.701 5.29201 253.104 4.94101 253.104 4.42101C253.104 3.92701 252.701 3.56301 252.233 3.56301C251.765 3.56301 251.362 3.92701 251.362 4.42101C251.362 4.94101 251.765 5.29201 252.233 5.29201ZM251.57 12H252.896V6.54001H251.57V12Z" fill="black"/>
<path d="M254.604 12H255.917V9.03601C255.917 8.15201 256.476 7.63201 257.334 7.63201C258.101 7.63201 258.465 8.08701 258.465 8.86701V12H259.778V8.76301C259.778 7.28101 258.946 6.42301 257.737 6.42301C256.918 6.42301 256.229 6.83901 255.891 7.55401L255.917 6.54001H254.604V12Z" fill="black"/>
<path d="M262.462 9.71201H266.856C266.947 7.80101 265.894 6.42301 264.035 6.42301C262.397 6.42301 261.123 7.64501 261.123 9.27001C261.123 10.908 262.332 12.117 264.204 12.117C265.296 12.117 265.998 11.74 266.505 11.233L265.738 10.427C265.426 10.726 264.906 11.012 264.191 11.012C263.19 11.012 262.618 10.505 262.462 9.71201ZM262.462 8.80201C262.618 7.98301 263.203 7.51501 264.048 7.51501C264.958 7.51501 265.413 8.06101 265.53 8.80201H262.462Z" fill="black"/>
<path d="M269.317 9.71201H273.711C273.802 7.80101 272.749 6.42301 270.89 6.42301C269.252 6.42301 267.978 7.64501 267.978 9.27001C267.978 10.908 269.187 12.117 271.059 12.117C272.151 12.117 272.853 11.74 273.36 11.233L272.593 10.427C272.281 10.726 271.761 11.012 271.046 11.012C270.045 11.012 269.473 10.505 269.317 9.71201ZM269.317 8.80201C269.473 7.98301 270.058 7.51501 270.903 7.51501C271.813 7.51501 272.268 8.06101 272.385 8.80201H269.317Z" fill="black"/>
<path d="M275.106 12H276.419V9.34801C276.419 8.12601 276.952 7.67101 277.732 7.67101C278.031 7.67101 278.239 7.74901 278.447 7.85301L278.889 6.67001C278.655 6.52701 278.383 6.43601 277.993 6.43601C277.395 6.43601 276.771 6.70901 276.407 7.56701L276.419 6.54001H275.106V12Z" fill="black"/>
<path d="M278.771 13.482H279.46L280.227 11.987C280.37 11.74 280.5 11.48 280.5 11.181C280.5 10.674 280.084 10.297 279.616 10.297C279.135 10.297 278.719 10.674 278.719 11.168C278.719 11.558 278.94 11.844 279.265 11.974L278.771 13.482Z" fill="black"/>
<path d="M176.832 26H178.145V23.01C178.145 22.1 178.6 21.632 179.38 21.632C180.134 21.632 180.394 22.048 180.394 22.802V26H181.707V23.01C181.707 22.1 182.162 21.632 182.929 21.632C183.683 21.632 183.956 22.048 183.956 22.802V26H185.269V22.672C185.269 21.281 184.502 20.423 183.215 20.423C182.422 20.423 181.772 20.813 181.343 21.463C181.057 20.8 180.537 20.423 179.744 20.423C179.042 20.423 178.483 20.787 178.119 21.476L178.145 20.54H176.832V26Z" fill="black"/>
<path d="M190.189 22.75H188.694C187.459 22.763 186.549 23.257 186.549 24.388C186.549 25.61 187.433 26.117 188.512 26.117C189.318 26.117 189.838 25.805 190.228 25.22L190.189 26H191.502V22.776C191.502 21.164 190.514 20.423 189.201 20.423C188.044 20.423 187.394 20.826 186.913 21.398L187.667 22.165C187.966 21.827 188.382 21.515 189.097 21.515C189.799 21.515 190.189 21.879 190.189 22.75ZM190.189 23.66V24.089C190.189 24.687 189.643 25.064 188.876 25.064C188.2 25.064 187.836 24.817 187.836 24.349C187.836 23.868 188.213 23.66 188.785 23.66H190.189Z" fill="black"/>
<path d="M195.057 26.117C196.604 26.117 197.176 25.35 197.176 24.414C197.176 23.257 196.24 22.919 195.382 22.698C194.524 22.477 194.186 22.386 194.186 21.97C194.186 21.645 194.459 21.463 194.953 21.463C195.447 21.463 195.824 21.697 196.084 21.996L196.851 21.242C196.435 20.787 195.824 20.423 194.953 20.423C193.874 20.423 193.003 20.943 193.003 22.035C193.003 23.114 193.809 23.491 194.615 23.712C195.538 23.972 195.941 24.037 195.941 24.479C195.941 24.843 195.642 25.064 194.979 25.064C194.355 25.064 193.848 24.843 193.51 24.362L192.613 24.986C192.977 25.571 193.809 26.117 195.057 26.117Z" fill="black"/>
<path d="M200.469 26.13C201.21 26.13 201.613 25.857 201.886 25.61L201.34 24.713C201.197 24.83 201.002 24.999 200.651 24.999C200.313 24.999 200.105 24.817 200.105 24.18V21.645H201.561V20.54H200.105V18.434H198.792V20.54H197.973V21.645H198.792V24.154C198.792 25.61 199.507 26.13 200.469 26.13Z" fill="black"/>
<path d="M204.038 23.712H208.432C208.523 21.801 207.47 20.423 205.611 20.423C203.973 20.423 202.699 21.645 202.699 23.27C202.699 24.908 203.908 26.117 205.78 26.117C206.872 26.117 207.574 25.74 208.081 25.233L207.314 24.427C207.002 24.726 206.482 25.012 205.767 25.012C204.766 25.012 204.194 24.505 204.038 23.712ZM204.038 22.802C204.194 21.983 204.779 21.515 205.624 21.515C206.534 21.515 206.989 22.061 207.106 22.802H204.038Z" fill="black"/>
<path d="M209.827 26H211.14V23.348C211.14 22.126 211.673 21.671 212.453 21.671C212.752 21.671 212.96 21.749 213.168 21.853L213.61 20.67C213.376 20.527 213.103 20.436 212.713 20.436C212.115 20.436 211.491 20.709 211.127 21.567L211.14 20.54H209.827V26Z" fill="black"/>
<path d="M218.714 23.712H223.108C223.199 21.801 222.146 20.423 220.287 20.423C218.649 20.423 217.375 21.645 217.375 23.27C217.375 24.908 218.584 26.117 220.456 26.117C221.548 26.117 222.25 25.74 222.757 25.233L221.99 24.427C221.678 24.726 221.158 25.012 220.443 25.012C219.442 25.012 218.87 24.505 218.714 23.712ZM218.714 22.802C218.87 21.983 219.455 21.515 220.3 21.515C221.21 21.515 221.665 22.061 221.782 22.802H218.714Z" fill="black"/>
<path d="M224.555 26H225.868V16.614H224.555V26Z" fill="black"/>
<path d="M228.654 23.712H233.048C233.139 21.801 232.086 20.423 230.227 20.423C228.589 20.423 227.315 21.645 227.315 23.27C227.315 24.908 228.524 26.117 230.396 26.117C231.488 26.117 232.19 25.74 232.697 25.233L231.93 24.427C231.618 24.726 231.098 25.012 230.383 25.012C229.382 25.012 228.81 24.505 228.654 23.712ZM228.654 22.802C228.81 21.983 229.395 21.515 230.24 21.515C231.15 21.515 231.605 22.061 231.722 22.802H228.654Z" fill="black"/>
<path d="M237.082 26.117C238.135 26.117 238.785 25.74 239.318 25.129L238.421 24.349C238.122 24.687 237.732 24.96 237.082 24.96C236.107 24.96 235.522 24.245 235.522 23.27C235.522 22.295 236.107 21.58 237.082 21.58C237.641 21.58 238.096 21.84 238.356 22.217L239.292 21.463C238.772 20.813 238.109 20.423 237.082 20.423C235.418 20.423 234.17 21.645 234.17 23.27C234.17 24.908 235.418 26.117 237.082 26.117Z" fill="black"/>
<path d="M242.656 26.13C243.397 26.13 243.8 25.857 244.073 25.61L243.527 24.713C243.384 24.83 243.189 24.999 242.838 24.999C242.5 24.999 242.292 24.817 242.292 24.18V21.645H243.748V20.54H242.292V18.434H240.979V20.54H240.16V21.645H240.979V24.154C240.979 25.61 241.694 26.13 242.656 26.13Z" fill="black"/>
<path d="M245.222 26H246.535V23.348C246.535 22.126 247.068 21.671 247.848 21.671C248.147 21.671 248.355 21.749 248.563 21.853L249.005 20.67C248.771 20.527 248.498 20.436 248.108 20.436C247.51 20.436 246.886 20.709 246.522 21.567L246.535 20.54H245.222V26Z" fill="black"/>
<path d="M250.773 19.292C251.241 19.292 251.644 18.941 251.644 18.421C251.644 17.927 251.241 17.563 250.773 17.563C250.305 17.563 249.902 17.927 249.902 18.421C249.902 18.941 250.305 19.292 250.773 19.292ZM250.11 26H251.436V20.54H250.11V26Z" fill="black"/>
<path d="M255.783 26.117C256.836 26.117 257.486 25.74 258.019 25.129L257.122 24.349C256.823 24.687 256.433 24.96 255.783 24.96C254.808 24.96 254.223 24.245 254.223 23.27C254.223 22.295 254.808 21.58 255.783 21.58C256.342 21.58 256.797 21.84 257.057 22.217L257.993 21.463C257.473 20.813 256.81 20.423 255.783 20.423C254.119 20.423 252.871 21.645 252.871 23.27C252.871 24.908 254.119 26.117 255.783 26.117Z" fill="black"/>
<path d="M259.965 19.292C260.433 19.292 260.836 18.941 260.836 18.421C260.836 17.927 260.433 17.563 259.965 17.563C259.497 17.563 259.094 17.927 259.094 18.421C259.094 18.941 259.497 19.292 259.965 19.292ZM259.302 26H260.628V20.54H259.302V26Z" fill="black"/>
<path d="M265.637 22.75H264.142C262.907 22.763 261.997 23.257 261.997 24.388C261.997 25.61 262.881 26.117 263.96 26.117C264.766 26.117 265.286 25.805 265.676 25.22L265.637 26H266.95V22.776C266.95 21.164 265.962 20.423 264.649 20.423C263.492 20.423 262.842 20.826 262.361 21.398L263.115 22.165C263.414 21.827 263.83 21.515 264.545 21.515C265.247 21.515 265.637 21.879 265.637 22.75ZM265.637 23.66V24.089C265.637 24.687 265.091 25.064 264.324 25.064C263.648 25.064 263.284 24.817 263.284 24.349C263.284 23.868 263.661 23.66 264.233 23.66H265.637Z" fill="black"/>
<path d="M268.556 26H269.869V23.036C269.869 22.152 270.428 21.632 271.286 21.632C272.053 21.632 272.417 22.087 272.417 22.867V26H273.73V22.763C273.73 21.281 272.898 20.423 271.689 20.423C270.87 20.423 270.181 20.839 269.843 21.554L269.869 20.54H268.556V26Z" fill="black"/>
<path fill-rule="evenodd" clip-rule="evenodd" d="M166 31L166 -8.74228e-08L168 0L168 31L166 31Z" fill="black"/>
</svg>
